<svg id="Capa_1" enable-background="new 0 0 512 512" height="512" viewBox="0 0 512 512" width="512" xmlns="http://www.w3.org/2000/svg"><g><g><path d="m327.001 321.021c-24.673-12.526-50.817-21.773-77.835-27.565 14.981-11.706 27.656-26.269 37.118-42.804 12.585-21.992 19.237-47.085 19.237-72.566v-54.53c0-50.328-30.25-93.718-73.52-112.959-.398-.219-.816-.405-1.255-.55-14.972-6.46-31.463-10.047-48.778-10.047-24.164 0-47.571 6.978-67.692 20.178-3.463 2.271-4.429 6.921-2.156 10.385 2.271 3.464 6.921 4.43 10.385 2.156 17.668-11.592 38.23-17.719 59.463-17.719 13.682 0 26.778 2.551 38.846 7.192l-.251 16.186c-.001.036-.001.073-.001.109-.032 36.624-29.937 67.859-68.139 71.241h-65.706c-4.581 0-8.91 1.095-12.74 3.038 2.104-20.933 10.26-40.998 23.529-57.411 2.604-3.221 2.104-7.943-1.117-10.547-3.219-2.605-7.943-2.104-10.547 1.117-17.688 21.876-27.428 49.445-27.428 77.629v187.562c-7.276 3.042-14.484 6.353-21.479 9.904-21.984 11.16-35.64 33.407-35.64 58.059v113.118c0 10.919 8.884 19.803 19.803 19.803h321.739c10.92 0 19.804-8.884 19.804-19.803v-44.697c0-4.143-3.357-7.5-7.5-7.5s-7.5 3.357-7.5 7.5v44.697c0 2.648-2.155 4.803-4.804 4.803h-33.842v-26.122c0-4.143-3.357-7.5-7.5-7.5s-7.5 3.357-7.5 7.5v26.122h-224.054v-26.122c0-4.143-3.357-7.5-7.5-7.5s-7.5 3.357-7.5 7.5v26.122h-33.843c-2.648 0-4.803-2.154-4.803-4.803v-113.118c0-18.974 10.51-36.095 27.428-44.684 4.807-2.44 9.725-4.753 14.69-6.95v57.713c0 4.143 3.357 7.5 7.5 7.5 24.885 0 47.33-10.601 63.094-27.508 16.825 7.506 34.752 11.32 53.384 11.32 42.961 0 82.629-20.65 107.308-55.521 10.392 3.918 20.579 8.402 30.514 13.446 16.918 8.589 27.428 25.71 27.428 44.684v33.267c0 4.143 3.357 7.5 7.5 7.5s7.5-3.357 7.5-7.5v-33.267c0-24.652-13.657-46.899-35.64-58.058zm-95.12-33.554c-3.191-3.005-5.155-7.256-5.155-11.91v-26.488c3.472-2.298 6.931-4.832 10.314-7.645 21.194-17.617 33.251-40.685 34.204-65.217h5.974c4.808 0 9.334-1.214 13.303-3.339v5.217c0 44.402-21.831 84.929-58.64 109.382zm45.338-162.738c7.335 0 13.303 5.974 13.303 13.316v9.846c0 7.343-5.968 13.316-13.303 13.316h-5.84l.204-36.479h5.636zm12.769-11.947c-8.992-4.571-15.844-2.552-25.858-3.054-19.953-.016-36.189-16.197-36.363-36.139 5.082-10.926 7.776-22.824 7.795-35.032l.144-9.296c29.768 17.033 50.742 47.752 54.282 83.521zm-136.611 11.92c23.811-2.013 46.799-13.279 62.86-32.839 6.582 16.941 21.874 29.564 40.348 32.308-.076 13.709-.189 33.916-.272 48.909-.042 47.958-51.223 76.782-74.059 77.392-24.775-.7-73.966-31.479-73.926-77.538-.027-16.227-.053-32.306-.079-48.224 47.68.02 44.632.033 45.128-.008zm-66.66.027h6.532l.06 36.479h-6.592c-7.336 0-13.304-5.974-13.304-13.316v-9.846c0-7.344 5.968-13.317 13.304-13.317zm-13.304 252.539c0-23.795 0-183.786 0-204.407 3.969 2.128 8.494 3.347 13.304 3.347h6.682c.963 24.495 12.973 47.513 34.084 65.122 3.192 2.663 6.452 5.069 9.727 7.273v57.76c0 36.782-27.994 67.147-63.797 70.905zm108.978-15.797c-15.251 0-29.966-2.884-43.867-8.563 8.646-13.441 13.687-29.411 13.687-46.546v-49.196c11.474 5.446 22.191 8.135 29.87 8.305.056.001.111.002.167.002.052 0 .103-.001.154-.002 7.555-.155 18.052-2.737 29.324-7.986v18.071c0 15.124 10.778 28.089 25.629 30.826 12.715 2.343 25.244 5.489 37.522 9.409-21.996 28.766-55.893 45.68-92.486 45.68z"/><path d="m297.002 395.502-17.254-1.444-6.705-15.963c-3.32-7.905-14.525-7.897-17.838 0l-6.705 15.963-17.252 1.444c-8.525.71-11.999 11.371-5.515 16.965l13.11 11.31-3.959 16.856c-1.955 8.327 7.113 14.923 14.432 10.484l14.808-8.974 14.809 8.975c7.315 4.432 16.387-2.15 14.431-10.486l-3.96-16.855 13.111-11.31c6.476-5.589 3.017-16.254-5.513-16.965zm-19.841 19.025c-2.735 2.36-3.923 6.013-3.099 9.536l1.798 7.653-6.724-4.075c-3.095-1.874-6.938-1.873-10.026.001l-6.724 4.074 1.797-7.649c.829-3.523-.359-7.181-3.098-9.54l-5.953-5.135 7.833-.656c3.604-.301 6.713-2.559 8.114-5.894l3.044-7.247 3.045 7.248c1.4 3.334 4.51 5.592 8.112 5.893l7.833.655z"/><path d="m510.695 57.092c-.001-12.934-10.524-23.454-23.458-23.453s-23.454 10.524-23.453 23.458v2.643c-12.561 12.407-30.795 19.217-51.72 19.219l-57.327.003c-15.366.001-27.866 12.504-27.865 27.869l.001 27.131c.001 7.444 2.9 14.442 8.164 19.705 3.075 3.074 6.743 5.334 10.744 6.689v32.387c0 10.747 8.743 19.491 19.49 19.491h19.145c12.133 0 21.339-10.98 19.182-22.948l-4.949-27.46 13.42-.001h.008c20.921 0 39.156 6.807 51.717 19.209v2.66c0 12.964 10.491 23.454 23.457 23.454h.001c12.962 0 23.455-10.492 23.453-23.458zm-168.822 76.869-.001-27.131c0-3.437 1.338-6.668 3.768-9.099 2.431-2.431 5.662-3.77 9.099-3.77l31.863-.002.003 52.866-31.862.002c-.228 0-.452-.021-.677-.033-.207-.021-.417-.029-.629-.033-2.943-.295-5.673-1.582-7.793-3.702-2.432-2.429-3.771-5.662-3.771-9.098zm46.963 57.985c.496 2.757-1.617 5.288-4.42 5.288h-19.145c-2.476 0-4.49-2.015-4.49-4.491v-30.915l22.627-.001zm23.241-45.121c-.001 0-.008 0-.009 0h-10.464l-.003-52.866h10.464c19.682-.001 37.513-5.198 51.72-14.868l.006 82.594c-14.205-9.667-32.033-14.86-51.714-14.86zm75.174 45.323c-4.674 0-8.457-3.779-8.457-8.455l-.01-126.599c-.001-4.662 3.792-8.455 8.455-8.456 4.662-.001 8.455 3.792 8.456 8.455l.01 126.599c0 4.672-3.78 8.456-8.454 8.456z"/></g></g></svg>