<?xml version="1.0" encoding="UTF-8"?>
<svg xmlns="http://www.w3.org/2000/svg" id="Layer_1" data-name="Layer 1" viewBox="0 0 512 512" width="512" height="512"><path d="M470.186,219.056c-18.347,0-33.6,13.944-36.364,30.944H412.4a155.958,155.958,0,0,0-42.137-100.614l56.512-56.513a36.834,36.834,0,1,0-8.343-8.628L361.74,140.94A155.93,155.93,0,0,0,261,99.809V78.3a36.885,36.885,0,1,0-12-.383V99.885a155.964,155.964,0,0,0-99.795,42.036L84.464,77.18a36.77,36.77,0,1,0-8.684,8.286l64.974,64.974A155.934,155.934,0,0,0,99.56,251H78.336a36.948,36.948,0,1,0-.464,12H99.616a155.961,155.961,0,0,0,41.869,99.864L76.973,427.376A36.834,36.834,0,1,0,85.316,436l64.675-64.675A155.944,155.944,0,0,0,250,412.672v21.2a36.814,36.814,0,1,0,12,0v-21.2A155.952,155.952,0,0,0,362.683,370.7l64.536,64.535a36.843,36.843,0,1,0,8.569-8.4l-64.645-64.646A155.941,155.941,0,0,0,412.422,262h21.493a36.366,36.366,0,0,0,36.271,30.685,36.815,36.815,0,0,0,0-73.629Zm-39.032-173.3a24.814,24.814,0,1,1,0,35.093A24.738,24.738,0,0,1,431.154,45.753ZM72.6,72.6a24.8,24.8,0,1,1,0-35.093A24.845,24.845,0,0,1,72.6,72.6ZM41.814,280.814A24.814,24.814,0,1,1,66.628,256,24.842,24.842,0,0,1,41.814,280.814ZM72.6,474.5a24.8,24.8,0,1,1,0-35.093A24.843,24.843,0,0,1,72.6,474.5ZM439.4,439.4a24.814,24.814,0,1,1,0,35.093A24.74,24.74,0,0,1,439.4,439.4ZM231.186,41.814A24.814,24.814,0,1,1,256,66.628,24.842,24.842,0,0,1,231.186,41.814Zm1.591,357.109a143.319,143.319,0,0,1-28.971-7.88c-1.248-8.105-.242-14.7,3.424-23.315a6,6,0,1,0-11.041-4.7c-3.417,8.028-5.22,15.059-5.109,22.459-5.133-2.58-10.08-5.456-15.08-8.608v-32.8a27.7,27.7,0,0,1,2.035-9.968c.124-.31.367-.617.5-.918a27.368,27.368,0,0,1,16.207-14.5l5.034-1.73c5.387-1.86,10.889-3.441,16.441-4.76l4.192,31.866a6.006,6.006,0,0,0,8.434,4.683l9.92-4.5,1.972,8.094Zm-12.7-162.559c4.441-13.924,12.71-21.173,19.918-24.9,7.191,6.423,17.631,9.992,34.279,11.4,2.589,5.933,8.947,16.293,22.5,17.869a6.432,6.432,0,0,0,.939.271h.294a6.488,6.488,0,0,0,1.211-.332,1.79,1.79,0,0,1,2.173,1.216,4.151,4.151,0,0,1-3.129,5.053,4.446,4.446,0,0,1-1.06.063h-.7a6.03,6.03,0,0,0-6,5.809,34.519,34.519,0,0,1-68.992-.008,6.023,6.023,0,0,0-6-5.8h-.751a4.27,4.27,0,0,1-4.289-4.219,3.991,3.991,0,0,1,.123-1c.323-1.314,1.751-1.165,2.274-1.067a6.42,6.42,0,0,0,1.11.285h.329a6.187,6.187,0,0,0,4.387-2.088A6.315,6.315,0,0,0,220.081,236.364Zm-.724-23.593a36.941,36.941,0,0,1,8.867-20.438,64.728,64.728,0,0,0,4.252,9.508A49.205,49.205,0,0,0,219.357,212.771ZM271.5,183.117c5.941,3.211,10.339,6.674,13.452,10.593a36.25,36.25,0,0,1,7.83,25.232l-.528,7.62c-5.869-3.6-7.754-10.525-7.845-10.872a6,6,0,0,0-5.459-4.545c-28.729-1.752-35.031-8.463-40.688-26.5C244.974,181.459,259.121,176.424,271.5,183.117ZM240.16,170.858A18.976,18.976,0,0,1,256.116,162h0a18.931,18.931,0,0,1,15.345,7.929C259.96,165.927,248.467,168.012,240.16,170.858Zm15.819,150.669-11.3-10.878A12.086,12.086,0,0,1,241,301.94v-6.406a44.546,44.546,0,0,0,13.294,2.5c.6.022,1.126.033,1.721.033A46.936,46.936,0,0,0,271,295.577v6.346a12.076,12.076,0,0,1-3.682,8.726Zm7.77,18.415-1.913,6.38-10.255-.162-1.7-6.96L256,336.426Zm11.916-20.621a24.137,24.137,0,0,0,6.2-9.83c.7.107,1.407.224,2.11.34l-3.237,24.643-14.183-6.435Zm-39.3-.01,9.091,8.723-14.194,6.44-3.237-24.643c.719-.119,1.438-.237,2.157-.346A24.157,24.157,0,0,0,236.363,319.311Zm44.451,150.875A24.814,24.814,0,1,1,256,445.372,24.842,24.842,0,0,1,280.814,470.186ZM256,400.8q-5.7,0-11.294-.439l7.208-42.192,9.08.143,5.57,42.1Q261.329,400.79,256,400.8Zm80-23.921c-5,3.083-9.732,5.906-14.746,8.442.086-7.341-1.6-14.322-5-22.293a6.039,6.039,0,0,0-11.126,4.7c3.647,8.565,4.644,15.128,3.429,23.18a143.379,143.379,0,0,1-30.066,8.137l-6.106-46.123,2.389-7.977,8.379,3.8a6,6,0,0,0,8.427-4.683l4.185-31.866c5.552,1.318,11.041,2.9,16.426,4.76l5,1.729a27.258,27.258,0,0,1,16.15,14.5c.134.305.491.612.592.865A27.834,27.834,0,0,1,336,344.129Zm12-8.851V344.183a40.1,40.1,0,0,0-2.893-14.531c-.176-.439-.472-.874-.665-1.311a39.4,39.4,0,0,0-23.266-21l-5.088-1.729A189.928,189.928,0,0,0,283,297.536v-8.175a22.9,22.9,0,0,0,4.6-3.706,46.212,46.212,0,0,0,14.415-27.308,16.278,16.278,0,0,0,11.015-19.475,13.837,13.837,0,0,0-8.928-9.706l.652-9.384a48.209,48.209,0,0,0-10.409-33.543,46.045,46.045,0,0,0-7.383-7.39A31.021,31.021,0,0,0,256.121,150h0A31.023,31.023,0,0,0,225.3,178.5a48.939,48.939,0,0,0-18.026,41.235l.655,9.48a13.708,13.708,0,0,0-8.978,9.7,16.274,16.274,0,0,0,11.072,19.45A46.747,46.747,0,0,0,229,289.3v8.232a189.63,189.63,0,0,0-33.087,8.085l-5.02,1.73a39.313,39.313,0,0,0-23.217,21c-.19.432-.6.867-.8,1.363A39.971,39.971,0,0,0,164,344.129v23.9a145.165,145.165,0,0,1-52.766-111.767c0-79.7,65.067-144.538,144.766-144.538s144.766,64.84,144.766,144.538A145.165,145.165,0,0,1,348,368.026Zm122.186-87.212A24.814,24.814,0,1,1,495,256,24.841,24.841,0,0,1,470.186,280.814Z"/><path d="M190.633,146.9c-1.876,1.122-3.743,2.3-5.549,3.514a6,6,0,1,0,6.681,9.968c1.634-1.095,3.324-2.166,5.024-3.181a6,6,0,0,0-6.156-10.3Z"/><path d="M165.421,166.693a127.35,127.35,0,0,0-33.538,117.1,6,6,0,1,0,11.707-2.635,114.647,114.647,0,0,1,30.38-106.041,6,6,0,0,0-8.549-8.421Z"/></svg>
