<svg id="Capa_1" enable-background="new 0 0 512 512" height="512" viewBox="0 0 512 512" width="512" xmlns="http://www.w3.org/2000/svg"><g><circle cx="378.604" cy="65.133" r="7.5"/><circle cx="418.517" cy="65.133" r="7.5"/><circle cx="458.431" cy="65.133" r="7.5"/><path d="m226.6 319.582c3.066 0 6.135-.807 8.93-2.421l59.801-34.526c5.592-3.229 8.931-9.011 8.931-15.468 0-.783-.049-1.555-.146-2.315-.646-5.096-3.412-9.596-7.717-12.487-.005-.003-.01-.007-.016-.01-.01-.007-.02-.013-.03-.02 0 0-.001-.001-.001-.001-.003-.002-.006-.004-.009-.006-.002-.001-.004-.003-.006-.004-.327-.217-.663-.426-1.006-.624l-59.801-34.526c-5.592-3.229-12.269-3.228-17.861 0-5.592 3.229-8.93 9.011-8.93 15.468v69.052c0 6.457 3.338 12.239 8.93 15.468 2.796 1.613 5.863 2.42 8.931 2.42zm-2.861-86.941c0-1.437.896-2.169 1.43-2.478.534-.308 1.615-.719 2.861 0l59.801 34.526c1.245.719 1.431 1.861 1.431 2.477s-.186 1.758-1.431 2.477l-59.801 34.527c-1.245.719-2.326.309-2.861 0-.534-.309-1.43-1.041-1.43-2.478z"/><path d="m433.393 150.167h-353.786c-8.33 0-15.107 6.777-15.107 15.107v203.785c0 8.33 6.777 15.107 15.107 15.107h72.393c4.142 0 7.5-3.358 7.5-7.5s-3.358-7.5-7.5-7.5h-72.393c-.059 0-.107-.048-.107-.107v-203.785c0-.059.048-.107.107-.107h353.785c.059 0 .107.048.107.107v203.785c0 .059-.048.107-.107.107h-251.392c-4.142 0-7.5 3.358-7.5 7.5s3.358 7.5 7.5 7.5h251.393c8.33 0 15.107-6.777 15.107-15.107v-203.785c0-8.33-6.777-15.107-15.107-15.107z"/><path d="m441 421.077h-308.365c-2.772-9.807-11.797-17.018-22.48-17.018h-2.31c-10.683 0-19.707 7.21-22.48 17.018h-13.365c-4.142 0-7.5 3.358-7.5 7.5s3.358 7.5 7.5 7.5h13.365c2.772 9.807 11.797 17.018 22.48 17.018h2.31c10.683 0 19.707-7.21 22.48-17.018h308.365c4.142 0 7.5-3.358 7.5-7.5s-3.358-7.5-7.5-7.5zm-322.482 8.655c0 4.611-3.751 8.363-8.363 8.363h-2.31c-4.611 0-8.363-3.751-8.363-8.363v-2.31c0-4.611 3.751-8.363 8.363-8.363h2.31c4.611 0 8.363 3.751 8.363 8.363z"/><path d="m476.224 13.934h-289.59c-4.142 0-7.5 3.358-7.5 7.5s3.358 7.5 7.5 7.5h289.59c11.456 0 20.776 9.32 20.776 20.776v51.621h-482v-51.621c0-11.456 9.32-20.776 20.776-20.776h120.858c4.142 0 7.5-3.358 7.5-7.5s-3.358-7.5-7.5-7.5h-120.858c-19.727 0-35.776 16.049-35.776 35.776v412.58c0 19.727 16.049 35.776 35.776 35.776h440.448c19.727 0 35.776-16.049 35.776-35.776v-412.58c0-19.727-16.049-35.776-35.776-35.776zm0 469.132h-440.448c-11.456 0-20.776-9.32-20.776-20.776v-345.958h482v345.958c0 11.456-9.32 20.776-20.776 20.776z"/></g></svg>