<?xml version="1.0" encoding="utf-8"?>
<!-- Generator: Adobe Illustrator 23.1.0, SVG Export Plug-In . SVG Version: 6.00 Build 0)  -->
<svg version="1.1" id="Layer_1" xmlns="http://www.w3.org/2000/svg" xmlns:xlink="http://www.w3.org/1999/xlink" x="0px" y="0px"
	 viewBox="0 0 500 500" style="enable-background:new 0 0 500 500;" xml:space="preserve">
<style type="text/css">
	.st0{fill:#F1CE35;}
	.st1{fill:#FFFFFF;}
	.st2{fill:#F7E27E;}
	.st3{fill:#401449;}
	.st4{fill:#B8D661;}
	.st5{fill:#E0E786;}
	.st6{fill:#C64445;}
	.st7{fill:#E27273;}
	.st8{fill:#83C0E9;}
	.st9{fill:#A3DEF9;}
	.st10{fill:#8B4397;}
	.st11{fill:#9E6A99;}
	.st12{fill:#E1E6EA;}
	.st13{fill:#A36F58;}
	.st14{fill:#C69974;}
	.st15{fill:#DFB78F;}
	.st16{fill:#F6E9CB;}
	.st17{fill:#F7F4F1;}
	.st18{fill:#EBE0DB;}
	.st19{fill:#FFD36C;}
	.st20{fill:#99D9E8;}
	.st21{fill:#60C9E0;}
	.st22{fill:#72A0D5;}
	.st23{fill:#F59085;}
	.st24{fill:#F06EA9;}
	.st25{fill:#010101;}
	.st26{fill:#C6C8CA;}
	.st27{fill:#DBD8DB;}
	.st28{fill:#C8C5C9;}
	.st29{fill:#C1D8F0;}
	.st30{fill:#ECEAEC;}
	.st31{fill:#A6C8EA;}
	.st32{fill:#454E5A;}
	.st33{fill:#E0667D;}
	.st34{fill:#DD4957;}
	.st35{fill:#EDC964;}
	.st36{fill:#E6B93F;}
	.st37{fill:#87828E;}
	.st38{fill:#6CCAF2;}
	.st39{fill:#EF4D75;}
	.st40{fill:#A4A4A5;}
	.st41{fill:#E6E7E8;}
	.st42{fill:#79D2F3;}
	.st43{fill:#54B1E4;}
	.st44{fill:#60276D;}
</style>
<g>
	<g>
		<path class="st27" d="M296.83,456.57h-98.7l8.7-66.3h81.31L296.83,456.57z"/>
		<path class="st28" d="M290.28,406.7l-2.15-16.43h-81.31l-2.15,16.43H290.28z"/>
		<path class="st29" d="M446.44,390.27H48.51c-15.12,0-27.38-12.26-27.38-27.38V86.12c0-15.12,12.26-27.38,27.38-27.38h397.93
			c15.12,0,27.38,12.26,27.38,27.38v276.77C473.82,378.01,461.56,390.27,446.44,390.27z"/>
		<path class="st30" d="M21.13,332.53v30.36c0,15.12,12.26,27.38,27.38,27.38h397.93c15.12,0,27.38-12.26,27.38-27.38v-30.36H21.13z
			"/>
		<path class="st31" d="M21.13,316.1h452.69v16.43H21.13V316.1z"/>
		<path class="st27" d="M446.44,373.84H48.51c-15.12,0-27.38-12.26-27.38-27.38v16.43c0,15.12,12.26,27.38,27.38,27.38h397.93
			c15.12,0,27.38-12.26,27.38-27.38v-16.43C473.82,361.58,461.56,373.84,446.44,373.84z"/>
		<path class="st30" d="M67.64,155.94h359.67v176.59H67.64L67.64,155.94z"/>
		<path class="st27" d="M67.64,316.1h359.67v16.43H67.64L67.64,316.1z"/>
		<path class="st32" d="M413.62,101.72H81.33c-7.56,0-13.69,6.13-13.69,13.69v40.53h359.67v-40.53
			C427.31,107.85,421.18,101.72,413.62,101.72z"/>
		<path class="st33" d="M114.61,191.02h265.72v73.75H114.61L114.61,191.02z"/>
		<path class="st34" d="M114.61,248.35h265.72v16.43H114.61L114.61,248.35z"/>
		<path class="st35" d="M114.61,295.17h116.48v37.36H114.61L114.61,295.17z"/>
		<path class="st35" d="M263.86,295.17h116.48v37.36H263.86V295.17z"/>
		<g>
			<path class="st36" d="M114.61,316.1h116.48v16.43H114.61L114.61,316.1z"/>
			<path class="st36" d="M263.86,316.1h116.48v16.43H263.86V316.1z"/>
		</g>
	</g>
	<g>
		<path class="st25" d="M446.83,51.49H297.37c-3.79,0-6.86,3.07-6.86,6.86s3.07,6.86,6.86,6.86h149.45
			c11.34,0,20.58,9.23,20.58,20.58v240.04h-32.88l0-210.69c0-11.35-9.23-20.58-20.58-20.58H81.01c-11.35,0-20.58,9.23-20.58,20.58
			v210.69H27.55V85.78c0-11.35,9.23-20.58,20.58-20.58h221.82c3.79,0,6.86-3.07,6.86-6.86s-3.07-6.86-6.86-6.86H48.12
			c-18.91,0-34.29,15.38-34.29,34.29v277.31c0,18.91,15.38,34.29,34.29,34.29h150.8l-6.91,52.72h-24.37c-3.79,0-6.86,3.07-6.86,6.86
			s3.07,6.86,6.86,6.86h159.67c3.79,0,6.86-3.07,6.86-6.86s-3.07-6.86-6.86-6.86h-24.37l-6.91-52.72h72.68
			c3.79,0,6.86-3.07,6.86-6.86s-3.07-6.86-6.86-6.86H48.12c-11.34,0-20.58-9.23-20.58-20.58v-23.56H467.4v23.56
			c0,11.35-9.23,20.58-20.58,20.58h-50.69c-3.79,0-6.86,3.07-6.86,6.86s3.07,6.86,6.86,6.86h50.69c18.91,0,34.29-15.38,34.29-34.29
			V85.78C481.12,66.87,465.74,51.49,446.83,51.49L446.83,51.49z M289.1,450.1h-83.26l6.91-52.72h69.43L289.1,450.1z M74.15,115.13
			c0-3.78,3.08-6.86,6.86-6.86h332.94c3.78,0,6.86,3.08,6.86,6.86v33.76H74.15L74.15,115.13z M74.15,162.6H420.8v163.22h-33.34
			v-30.57c0-3.79-3.07-6.86-6.86-6.86H263.89c-3.79,0-6.86,3.07-6.86,6.86v30.57h-19.12v-30.57c0-3.79-3.07-6.86-6.86-6.86H114.35
			c-3.79,0-6.86,3.07-6.86,6.86v30.57H74.15L74.15,162.6z M373.74,325.82H270.75v-23.71h102.99V325.82z M224.2,325.82H121.21v-23.71
			H224.2V325.82z"/>
		<path class="st25" d="M100.31,117.52c-5.81,0-10.53,4.73-10.53,10.54s4.73,10.53,10.53,10.53s10.53-4.73,10.53-10.53
			C110.84,122.24,106.11,117.52,100.31,117.52z"/>
		<path class="st25" d="M134.11,117.52c-5.81,0-10.53,4.73-10.53,10.54s4.73,10.53,10.53,10.53c5.81,0,10.53-4.73,10.53-10.53
			C144.65,122.24,139.92,117.52,134.11,117.52L134.11,117.52z"/>
		<path class="st25" d="M167.92,117.52c-5.81,0-10.53,4.73-10.53,10.54s4.73,10.53,10.53,10.53c5.81,0,10.54-4.73,10.54-10.53
			C178.46,122.24,173.73,117.52,167.92,117.52L167.92,117.52z"/>
		<path class="st25" d="M114.35,271.65h49.9c3.79,0,6.86-3.07,6.86-6.86s-3.07-6.86-6.86-6.86h-43.04v-60.18h252.52v60.18H191.68
			c-3.79,0-6.86,3.07-6.86,6.86s3.07,6.86,6.86,6.86h188.91c3.79,0,6.86-3.07,6.86-6.86v-73.9c0-3.79-3.07-6.86-6.86-6.86H114.35
			c-3.79,0-6.86,3.07-6.86,6.86v73.9C107.49,268.58,110.56,271.65,114.35,271.65L114.35,271.65z"/>
	</g>
</g>
</svg>
