<?xml version="1.0" encoding="utf-8"?>
<!-- Generator: Adobe Illustrator 23.1.0, SVG Export Plug-In . SVG Version: 6.00 Build 0)  -->
<svg version="1.1" id="Layer_1" xmlns="http://www.w3.org/2000/svg" xmlns:xlink="http://www.w3.org/1999/xlink" x="0px" y="0px"
	 viewBox="0 0 500 500" style="enable-background:new 0 0 500 500;" xml:space="preserve">
<style type="text/css">
	.st0{fill:#F1CE35;}
	.st1{fill:#FFFFFF;}
	.st2{fill:#F7E27E;}
	.st3{fill:#401449;}
	.st4{fill:#B8D661;}
	.st5{fill:#E0E786;}
	.st6{fill:#C64445;}
	.st7{fill:#E27273;}
	.st8{fill:#83C0E9;}
	.st9{fill:#A3DEF9;}
	.st10{fill:#8B4397;}
	.st11{fill:#9E6A99;}
	.st12{fill:#E1E6EA;}
	.st13{fill:#A36F58;}
	.st14{fill:#C69974;}
	.st15{fill:#DFB78F;}
	.st16{fill:#F6E9CB;}
	.st17{fill:#F7F4F1;}
	.st18{fill:#EBE0DB;}
	.st19{fill:#FFD36C;}
	.st20{fill:#99D9E8;}
	.st21{fill:#60C9E0;}
	.st22{fill:#72A0D5;}
	.st23{fill:#F59085;}
	.st24{fill:#F06EA9;}
	.st25{fill:#010101;}
	.st26{fill:#C6C8CA;}
	.st27{fill:#DBD8DB;}
	.st28{fill:#C8C5C9;}
	.st29{fill:#C1D8F0;}
	.st30{fill:#ECEAEC;}
	.st31{fill:#A6C8EA;}
	.st32{fill:#454E5A;}
	.st33{fill:#E0667D;}
	.st34{fill:#DD4957;}
	.st35{fill:#EDC964;}
	.st36{fill:#E6B93F;}
	.st37{fill:#87828E;}
	.st38{fill:#6CCAF2;}
	.st39{fill:#EF4D75;}
	.st40{fill:#A4A4A5;}
	.st41{fill:#E6E7E8;}
	.st42{fill:#79D2F3;}
	.st43{fill:#54B1E4;}
	.st44{fill:#60276D;}
</style>
<g>
	<path class="st4" d="M476.94,405.49c0,27.46-22.26,49.72-49.71,49.72c-27.46,0-49.71-22.26-49.71-49.72
		c0-27.46,22.26-49.72,49.71-49.72C454.69,355.77,476.94,378.03,476.94,405.49z"/>
	<path class="st5" d="M448.54,405.49c0,27.46-15.9,49.72-35.51,49.72c-19.61,0-35.51-22.26-35.51-49.72
		c0-27.46,15.9-49.72,35.51-49.72C432.64,355.77,448.54,378.03,448.54,405.49z"/>
	<path class="st3" d="M427.23,459.83c-29.96,0-54.33-24.37-54.33-54.33c0-29.96,24.37-54.34,54.33-54.34
		c9.82,0,19.44,2.65,27.82,7.66c2.19,1.3,2.91,4.15,1.6,6.33c-1.31,2.19-4.15,2.9-6.33,1.59c-6.95-4.15-14.94-6.35-23.09-6.35
		c-24.87,0-45.1,20.24-45.1,45.11c0,24.87,20.23,45.11,45.1,45.11c24.86,0,45.1-20.24,45.1-45.11c0-6.05-1.18-11.92-3.5-17.47
		c-0.99-2.35,0.12-5.05,2.47-6.04c2.35-1,5.06,0.13,6.04,2.48c2.8,6.67,4.22,13.75,4.22,21.03
		C481.56,435.45,457.19,459.83,427.23,459.83z"/>
	<path class="st1" d="M121.83,448.12c0,15.68-12.72,28.41-28.41,28.41c-15.69,0-28.41-12.72-28.41-28.41
		c0-15.7,12.72-28.42,28.41-28.42C109.11,419.7,121.83,432.43,121.83,448.12z"/>
	<path class="st7" d="M121.83,448.12c0,15.68-7.95,28.41-17.76,28.41s-17.76-12.72-17.76-28.41c0-15.7,7.95-28.42,17.76-28.42
		S121.83,432.43,121.83,448.12z"/>
	<path class="st3" d="M93.42,481.14c-18.21,0-33.02-14.82-33.02-33.03c0-18.21,14.81-33.03,33.02-33.03s33.02,14.82,33.02,33.03
		C126.44,466.32,111.63,481.14,93.42,481.14z M93.42,424.31c-13.12,0-23.79,10.68-23.79,23.8c0,13.12,10.67,23.8,23.79,23.8
		c13.12,0,23.79-10.68,23.79-23.8C117.21,434.99,106.54,424.31,93.42,424.31z"/>
	<path class="st0" d="M434.33,85.82c0,19.62-15.9,35.52-35.51,35.52c-19.61,0-35.51-15.9-35.51-35.52s15.9-35.51,35.51-35.51
		C418.43,50.31,434.33,66.21,434.33,85.82z"/>
	<path class="st2" d="M413.03,85.82c0,19.62-11.13,35.52-24.86,35.52s-24.86-15.9-24.86-35.52s11.13-35.51,24.86-35.51
		S413.03,66.21,413.03,85.82z"/>
	<path class="st3" d="M398.82,125.95c-22.13,0-40.12-18-40.12-40.13c0-22.12,18-40.12,40.12-40.12c22.12,0,40.12,18,40.12,40.12
		C438.94,107.95,420.94,125.95,398.82,125.95z M398.82,54.93c-17.03,0-30.89,13.86-30.89,30.9c0,17.04,13.86,30.9,30.89,30.9
		s30.89-13.86,30.89-30.9C429.71,68.79,415.86,54.93,398.82,54.93z"/>
	<path class="st7" d="M398.82,121.35c0,11.76-9.54,21.3-21.3,21.3c-11.77,0-21.3-9.54-21.3-21.3c0-11.78,9.54-21.31,21.3-21.31
		C389.28,100.03,398.82,109.57,398.82,121.35z"/>
	<path class="st3" d="M377.51,147.27c-14.3,0-25.92-11.63-25.92-25.92c0-14.3,11.63-25.93,25.92-25.93
		c14.29,0,25.92,11.63,25.92,25.93C403.43,135.64,391.81,147.27,377.51,147.27z M377.51,104.65c-9.2,0-16.69,7.49-16.69,16.7
		c0,9.2,7.49,16.69,16.69,16.69c9.2,0,16.69-7.49,16.69-16.69C394.2,112.14,386.71,104.65,377.51,104.65z"/>
	<path class="st1" d="M235.48,199.49c0,58.84-47.69,106.55-106.53,106.55c-58.83,0-106.52-47.71-106.52-106.55
		c0-58.85,47.69-106.55,106.52-106.55C187.78,92.94,235.48,140.64,235.48,199.49z"/>
	<path class="st2" d="M235.48,199.49c0,58.84-41.34,106.55-92.32,106.55c-50.99,0-92.32-47.71-92.32-106.55
		c0-58.85,41.33-106.55,92.32-106.55C194.14,92.94,235.48,140.64,235.48,199.49z"/>
	<path class="st3" d="M128.95,310.65c-61.28,0-111.14-49.87-111.14-111.16c0-13.95,2.55-27.54,7.58-40.42
		c0.92-2.38,3.6-3.55,5.98-2.62c2.37,0.92,3.55,3.6,2.62,5.97c-4.61,11.8-6.95,24.27-6.95,37.07c0,56.2,45.72,101.93,101.91,101.93
		s101.91-45.72,101.91-101.93c0-56.2-45.72-101.93-101.91-101.93c-32.74,0-63.71,15.91-82.84,42.55c-1.49,2.07-4.38,2.54-6.44,1.05
		c-2.07-1.49-2.54-4.37-1.06-6.45c20.85-29.04,54.63-46.39,90.33-46.39c61.28,0,111.14,49.87,111.14,111.17
		C240.09,260.78,190.24,310.65,128.95,310.65z"/>
	<path class="st3" d="M218.27,262.15c-1.32,0-2.64-0.57-3.55-1.67c-0.28-0.34-28.5-33.72-68.95-40.65c-2.51-0.43-4.2-2.82-3.77-5.34
		c0.43-2.51,2.83-4.19,5.33-3.77c43.88,7.52,73.26,42.38,74.49,43.85c1.63,1.97,1.36,4.87-0.6,6.5
		C220.36,261.79,219.31,262.15,218.27,262.15z"/>
	<path class="st3" d="M42.37,266.14c-1.08,0-2.17-0.38-3.05-1.15c-1.91-1.68-2.1-4.6-0.41-6.51c24.74-28.07,51.28-44.29,78.87-48.22
		c2.49-0.34,4.86,1.39,5.22,3.92c0.36,2.52-1.4,4.86-3.92,5.22c-25.35,3.61-49.99,18.81-73.24,45.18
		C44.92,265.61,43.65,266.14,42.37,266.14z"/>
	<path class="st3" d="M29.69,242.76c-0.23,0-0.46-0.01-0.68-0.05c-2.52-0.37-4.26-2.72-3.89-5.24c0.33-2.23,8.67-54.77,63.18-71.87
		c26.47-8.3,44.57-22.75,48.41-38.66c2.54-10.5-1.27-21.12-11-30.71c-1.82-1.79-1.84-4.71-0.05-6.52c1.79-1.82,4.72-1.84,6.53-0.05
		c11.99,11.81,16.79,25.83,13.5,39.45c-4.68,19.38-24.59,35.89-54.63,45.3c-48.87,15.33-56.51,62.42-56.81,64.41
		C33.91,241.11,31.94,242.76,29.69,242.76z"/>
	<polygon class="st8" points="323,182.18 382.95,248.73 383.87,340.88 311.46,297.77 187.91,297.77 115.5,340.88 116.42,248.73 
		176.37,182.18 	"/>
	<path class="st3" d="M383.87,345.49c-0.82,0-1.63-0.21-2.36-0.65l-71.32-42.46H187.91c-2.55,0-4.61-2.07-4.61-4.61
		c0-2.55,2.07-4.61,4.61-4.61h123.55c0.83,0,1.65,0.23,2.36,0.64l65.35,38.91l-0.82-82.19l-57.4-63.73H178.43l-57.4,63.73
		l-0.82,82.19l40.97-24.39c2.19-1.31,5.02-0.59,6.33,1.6c1.3,2.19,0.59,5.02-1.61,6.33l-48.04,28.6c-1.43,0.86-3.21,0.87-4.66,0.04
		c-1.45-0.83-2.33-2.38-2.31-4.05l0.92-92.15c0.01-1.13,0.43-2.22,1.18-3.05l59.95-66.54c0.87-0.98,2.12-1.53,3.43-1.53H323
		c1.31,0,2.56,0.55,3.43,1.53l59.95,66.54c0.75,0.83,1.18,1.92,1.19,3.05l0.92,92.15c0.02,1.66-0.87,3.21-2.31,4.05
		C385.46,345.29,384.66,345.49,383.87,345.49z"/>
	<polygon class="st1" points="299.39,327.33 320.7,369.95 178.67,369.95 199.97,327.33 	"/>
	<path class="st1" d="M249.68,21.91c0,0-24.95,26.83-46.17,71.04h92.34C274.63,48.74,249.68,21.91,249.68,21.91z"/>
	<polygon class="st1" points="299.39,327.33 320.7,369.95 178.67,369.95 199.97,327.33 	"/>
	<polygon class="st26" points="299.39,327.33 320.7,369.95 199.97,369.95 214.18,327.33 	"/>
	<polygon class="st12" points="278.09,327.33 292.29,369.95 199.97,369.95 214.18,327.33 	"/>
	<path class="st3" d="M320.7,374.57H178.67c-1.6,0-3.08-0.82-3.92-2.19c-0.84-1.37-0.92-3.06-0.21-4.49l21.31-42.62
		c1.14-2.29,3.91-3.21,6.2-2.07c2.28,1.14,3.2,3.91,2.07,6.19l-17.97,35.95h127.09l-17.96-35.95c-1.14-2.28-0.22-5.05,2.07-6.19
		c2.29-1.12,5.05-0.22,6.19,2.07l21.3,42.62c0.71,1.43,0.64,3.13-0.2,4.49C323.78,373.74,322.3,374.57,320.7,374.57z"/>
	<path class="st26" d="M249.68,21.91c0,0-24.95,26.83-46.17,71.04h92.34C274.63,48.74,249.68,21.91,249.68,21.91z"/>
	<path class="st12" d="M247.96,24.57c0,0-23.22,24.17-44.45,68.39h71.04C262.94,61.24,247.96,24.57,247.96,24.57z"/>
	<path class="st1" d="M295.86,92.96h-92.34c-27.06,56.36-48.05,140.98-3.51,234.37h99.37C343.91,233.94,322.91,149.31,295.86,92.96z
		"/>
	<path class="st8" d="M295.86,92.96h-78.14c-27.06,56.36-48.05,140.98-3.51,234.37h85.17C343.91,233.94,322.91,149.31,295.86,92.96z
		"/>
	<path class="st9" d="M274.55,92.96h-56.84c-27.06,56.36-48.05,140.98-3.51,234.37h63.86C322.6,233.94,301.61,149.31,274.55,92.96z"
		/>
	<path class="st1" d="M278.09,242.09c0,15.69-12.72,28.41-28.41,28.41c-15.69,0-28.41-12.72-28.41-28.41
		c0-15.7,12.72-28.42,28.41-28.42C265.37,213.67,278.09,226.39,278.09,242.09z"/>
	<path class="st1" d="M270.99,156.84c0,11.77-9.54,21.31-21.3,21.31c-11.76,0-21.3-9.54-21.3-21.31c0-11.78,9.54-21.31,21.3-21.31
		C261.45,135.53,270.99,145.07,270.99,156.84z"/>
	<path class="st3" d="M249.68,275.12c-18.21,0-33.02-14.82-33.02-33.03c0-18.22,14.81-33.03,33.02-33.03s33.02,14.82,33.02,33.03
		C282.7,260.3,267.89,275.12,249.68,275.12z M249.68,218.29c-13.12,0-23.79,10.68-23.79,23.8c0,13.12,10.68,23.79,23.79,23.79
		c13.12,0,23.79-10.67,23.79-23.79C273.48,228.97,262.8,218.29,249.68,218.29z"/>
	<path class="st3" d="M249.68,182.77c-14.29,0-25.92-11.63-25.92-25.92c0-14.3,11.63-25.93,25.92-25.93
		c14.29,0,25.92,11.63,25.92,25.93C275.6,171.14,263.98,182.77,249.68,182.77z M249.68,140.14c-9.2,0-16.69,7.49-16.69,16.7
		c0,9.2,7.49,16.69,16.69,16.69c9.2,0,16.69-7.49,16.69-16.69C266.38,147.64,258.89,140.14,249.68,140.14z"/>
	<path class="st3" d="M295.86,97.57h-92.34c-1.59,0-3.06-0.82-3.91-2.16c-0.84-1.34-0.94-3.03-0.26-4.46
		c21.28-44.33,45.91-71.07,46.95-72.19c1.75-1.87,5.01-1.87,6.76,0c1.04,1.12,25.67,27.86,46.95,72.19
		c0.69,1.43,0.59,3.12-0.25,4.46C298.92,96.75,297.44,97.57,295.86,97.57z M210.94,88.33h77.48
		c-15.27-30.07-31.78-51.11-38.73-59.39C242.74,37.23,226.2,58.32,210.94,88.33z"/>
	<path class="st3" d="M242.58,331.94H200c-1.78,0-3.4-1.03-4.17-2.63c-45.68-95.79-23.3-182.49,3.52-238.36
		c0.77-1.6,2.38-2.62,4.16-2.62h92.34c1.77,0,3.39,1.02,4.16,2.62c4.13,8.59,7.89,17.39,11.19,26.15c0.9,2.38-0.31,5.05-2.69,5.94
		c-2.39,0.9-5.05-0.3-5.95-2.69c-2.87-7.61-6.11-15.27-9.63-22.79h-86.51c-25.14,53.6-45.28,135.16-3.5,225.14h39.65
		c2.55,0,4.61,2.07,4.61,4.62C247.19,329.88,245.13,331.94,242.58,331.94z"/>
	<path class="st3" d="M299.37,331.94h-28.38c-2.55,0-4.61-2.07-4.61-4.61c0-2.56,2.07-4.62,4.61-4.62h25.45
		c25.79-55.54,30.99-113.79,15.43-173.21c-0.64-2.47,0.83-4.99,3.3-5.64c2.45-0.64,4.99,0.83,5.64,3.3
		c16.37,62.52,10.57,123.81-17.26,182.16C302.77,330.92,301.15,331.94,299.37,331.94z"/>
	<path class="st3" d="M249.68,481.13c-2.55,0-4.62-2.07-4.62-4.62v-49.72c0-2.55,2.07-4.61,4.62-4.61c2.55,0,4.61,2.07,4.61,4.61
		v49.72C254.3,479.06,252.23,481.13,249.68,481.13z"/>
	<path class="st3" d="M207.07,452.72c-2.55,0-4.62-2.07-4.62-4.62v-49.72c0-2.55,2.07-4.62,4.62-4.62c2.55,0,4.61,2.07,4.61,4.62
		v49.72C211.69,450.65,209.62,452.72,207.07,452.72z"/>
	<path class="st3" d="M292.3,466.92c-2.55,0-4.61-2.07-4.61-4.62v-42.62c0-2.55,2.07-4.61,4.61-4.61s4.61,2.07,4.61,4.61v42.62
		C296.91,464.85,294.84,466.92,292.3,466.92z"/>
	<path class="st3" d="M444.16,289.35h-9.83c-2.55,0-4.62-2.07-4.62-4.61c0-2.55,2.07-4.62,4.62-4.62h9.83
		c2.55,0,4.62,2.07,4.62,4.62C448.78,287.28,446.71,289.35,444.16,289.35z"/>
	<path class="st3" d="M476.94,289.35h-9.83c-2.55,0-4.62-2.07-4.62-4.61c0-2.55,2.07-4.62,4.62-4.62h9.83
		c2.55,0,4.62,2.07,4.62,4.62C481.56,287.28,479.49,289.35,476.94,289.35z"/>
	<path class="st3" d="M455.63,310.66c-2.55,0-4.61-2.07-4.61-4.62v-9.83c0-2.55,2.07-4.62,4.61-4.62c2.55,0,4.61,2.07,4.61,4.62
		v9.83C460.25,308.59,458.18,310.66,455.63,310.66z"/>
	<path class="st3" d="M455.63,277.87c-2.55,0-4.61-2.07-4.61-4.61v-9.84c0-2.55,2.07-4.61,4.61-4.61c2.55,0,4.61,2.07,4.61,4.61
		v9.84C460.25,275.8,458.18,277.87,455.63,277.87z"/>
	<path class="st3" d="M401.55,204.1h-9.83c-2.55,0-4.62-2.07-4.62-4.61c0-2.55,2.07-4.62,4.62-4.62h9.83c2.55,0,4.61,2.07,4.61,4.62
		C406.16,202.04,404.09,204.1,401.55,204.1z"/>
	<path class="st3" d="M434.33,204.1h-9.83c-2.55,0-4.62-2.07-4.62-4.61c0-2.55,2.07-4.62,4.62-4.62h9.83c2.55,0,4.61,2.07,4.61,4.62
		C438.94,202.04,436.87,204.1,434.33,204.1z"/>
	<path class="st3" d="M413.02,225.41c-2.55,0-4.62-2.07-4.62-4.62v-9.83c0-2.55,2.07-4.61,4.62-4.61c2.54,0,4.61,2.07,4.61,4.61
		v9.83C417.64,223.34,415.57,225.41,413.02,225.41z"/>
	<path class="st3" d="M413.02,192.62c-2.55,0-4.62-2.07-4.62-4.61v-9.84c0-2.55,2.07-4.61,4.62-4.61c2.54,0,4.61,2.07,4.61,4.61
		v9.84C417.64,190.56,415.57,192.62,413.02,192.62z"/>
	<path class="st3" d="M32.23,360.38h-9.83c-2.55,0-4.61-2.07-4.61-4.61c0-2.55,2.07-4.61,4.61-4.61h9.83c2.55,0,4.62,2.07,4.62,4.61
		C36.85,358.32,34.78,360.38,32.23,360.38z"/>
	<path class="st3" d="M65,360.38h-9.83c-2.55,0-4.62-2.07-4.62-4.61c0-2.55,2.07-4.61,4.62-4.61H65c2.55,0,4.62,2.07,4.62,4.61
		C69.62,358.32,67.55,360.38,65,360.38z"/>
	<path class="st3" d="M43.7,381.69c-2.55,0-4.61-2.07-4.61-4.61v-9.84c0-2.56,2.07-4.62,4.61-4.62c2.55,0,4.61,2.07,4.61,4.62v9.84
		C48.31,379.63,46.25,381.69,43.7,381.69z"/>
	<path class="st3" d="M43.7,348.91c-2.55,0-4.61-2.07-4.61-4.61v-9.84c0-2.55,2.07-4.61,4.61-4.61c2.55,0,4.61,2.07,4.61,4.61v9.84
		C48.31,346.84,46.25,348.91,43.7,348.91z"/>
</g>
</svg>
