<?xml version="1.0" encoding="utf-8"?>
<!-- Generator: Adobe Illustrator 23.1.0, SVG Export Plug-In . SVG Version: 6.00 Build 0)  -->
<svg version="1.1" id="Layer_1" xmlns="http://www.w3.org/2000/svg" xmlns:xlink="http://www.w3.org/1999/xlink" x="0px" y="0px"
	 viewBox="0 0 500 500" style="enable-background:new 0 0 500 500;" xml:space="preserve">
<style type="text/css">
	.st0{fill:#F1CE35;}
	.st1{fill:#FFFFFF;}
	.st2{fill:#F7E27E;}
	.st3{fill:#401449;}
	.st4{fill:#B8D661;}
	.st5{fill:#E0E786;}
	.st6{fill:#C64445;}
	.st7{fill:#E27273;}
	.st8{fill:#83C0E9;}
	.st9{fill:#A3DEF9;}
	.st10{fill:#8B4397;}
	.st11{fill:#9E6A99;}
	.st12{fill:#E1E6EA;}
	.st13{fill:#A36F58;}
	.st14{fill:#C69974;}
	.st15{fill:#DFB78F;}
	.st16{fill:#F6E9CB;}
	.st17{fill:#F7F4F1;}
	.st18{fill:#EBE0DB;}
	.st19{fill:#FFD36C;}
	.st20{fill:#99D9E8;}
	.st21{fill:#60C9E0;}
	.st22{fill:#72A0D5;}
	.st23{fill:#F59085;}
	.st24{fill:#F06EA9;}
	.st25{fill:#010101;}
	.st26{fill:#C6C8CA;}
	.st27{fill:#DBD8DB;}
	.st28{fill:#C8C5C9;}
	.st29{fill:#C1D8F0;}
	.st30{fill:#ECEAEC;}
	.st31{fill:#A6C8EA;}
	.st32{fill:#454E5A;}
	.st33{fill:#E0667D;}
	.st34{fill:#DD4957;}
	.st35{fill:#EDC964;}
	.st36{fill:#E6B93F;}
	.st37{fill:#87828E;}
	.st38{fill:#6CCAF2;}
	.st39{fill:#EF4D75;}
	.st40{fill:#A4A4A5;}
	.st41{fill:#E6E7E8;}
	.st42{fill:#79D2F3;}
	.st43{fill:#54B1E4;}
	.st44{fill:#60276D;}
</style>
<g>
	<path class="st17" d="M229.51,258.44c7.08,5.12,15.79,8.14,25.21,8.14h80.55v39.05l51.06-39.05h22.03
		c23.74,0,42.99-19.19,42.99-42.86V70.56c0-23.67-19.25-42.86-42.99-42.86H254.72c-23.74,0-42.99,19.19-42.99,42.86v187.89H229.51z"
		/>
	<path class="st18" d="M408.35,27.7h-36.82c23.74,0,42.99,19.19,42.99,42.86v153.16c0,23.67-19.25,42.86-42.99,42.86H349.5
		l-14.23,10.89v28.17l51.06-39.05h22.03c23.74,0,42.99-19.19,42.99-42.86V70.56C451.34,46.89,432.09,27.7,408.35,27.7z"/>
	<path class="st19" d="M298.41,203.75l4.43,3.59c7.03,5.69,15.79,8.79,24.83,8.79h62.91c5.96,0,10.77-4.97,10.48-11
		c-0.27-5.64,0.01-57.04,0.01-62.84c0-5.79-4.7-10.49-10.49-10.49l-42.66-0.13l5.22-12.37c5.43-12.85,4.55-27.5-2.37-39.62
		c-1.96-3.43-6.36-4.55-9.72-2.48c-2.06,1.27-3.32,3.52-3.32,5.95c0,11.09-4.05,21.8-11.39,30.12l-27.2,30.78h-9.92v59.7
		L298.41,203.75L298.41,203.75z"/>
	<path class="st20" d="M294.16,213.22h-28.72c-1.9,0-3.44-1.54-3.44-3.44v-73.22c0-1.9,1.54-3.44,3.44-3.44h28.72
		c1.9,0,3.44,1.54,3.44,3.44v73.22C297.6,211.68,296.06,213.22,294.16,213.22z"/>
	<path class="st21" d="M229.58,335.2V180.62c0-18.67-15.18-33.8-33.9-33.8H74.52c-18.72,0-33.9,15.13-33.9,33.8V301.4
		c0,18.67,15.18,33.8,33.9,33.8h66.55v31.09l40.26-31.09H229.58z"/>
	<path class="st22" d="M195.67,146.82h-48.01c18.72,0,33.9,15.13,33.9,33.8V335.2h48.01V180.62
		C229.58,161.95,214.4,146.82,195.67,146.82z"/>
	<path class="st23" d="M295.16,310.5h-85.97c-13.29,0-24.06,10.74-24.06,23.99v85.71c0,13.25,10.77,23.99,24.06,23.99h47.23v22.06
		l28.57-22.06h10.17c13.29,0,24.06-10.74,24.06-23.99v-85.71C319.22,321.24,308.45,310.5,295.16,310.5L295.16,310.5z"/>
	<path class="st24" d="M295.16,310.5H258.1c13.29,0,24.06,10.74,24.06,23.99v85.71c0,13.25-10.77,23.99-24.06,23.99h-1.68v22.06
		l28.57-22.06h10.17c13.29,0,24.06-10.74,24.06-23.99v-85.71C319.22,321.24,308.45,310.5,295.16,310.5z"/>
	<path class="st17" d="M252.17,406.47c20.69-10.97,31.41-20.3,31.41-34.76c0-19.94-24.43-24.93-31.41-9.97
		c-7.98-15.45-31.41-9.97-31.41,9.97C220.76,386.17,231.48,395.5,252.17,406.47z"/>
	<path class="st25" d="M408.35,21.08h-19.42c-8.54,0-8.54,13.24,0,13.24h19.42c20.06,0,36.38,16.26,36.38,36.24v153.16
		c0,19.99-16.32,36.24-36.38,36.24h-22.03c-1.45,0-2.87,0.48-4.02,1.36l-40.42,30.92v-25.66c0-3.65-2.96-6.62-6.62-6.62h-80.55
		c-6.6,0-12.94-1.74-18.53-5.05v-74.29c0-13.92-7.09-26.21-17.85-33.48V70.56c0-19.98,16.32-36.24,36.38-36.24h92.74
		c8.54,0,8.54-13.24,0-13.24h-92.74c-27.36,0-49.61,22.2-49.61,49.48v70.76c-3.03-0.72-6.19-1.12-9.44-1.12H74.52
		C52.18,140.2,34,158.33,34,180.62v14.29c0,8.54,13.24,8.54,13.24,0v-14.29c0-14.99,12.24-27.18,27.29-27.18h121.15
		c15.05,0,27.29,12.19,27.29,27.18v76.93c-0.08,0.58-0.08,1.17,0,1.75v42.1c0,0.83-0.05,1.66-0.13,2.48h-13.65
		c-15.04,0-27.58,10.85-30.18,25.12c-0.6,0.23-1.18,0.54-1.72,0.96l-29.6,22.85V335.2c0-3.65-2.96-6.62-6.62-6.62H74.52
		c-15.05,0-27.29-12.19-27.29-27.18v-66.78c0-8.54-13.24-8.54-13.24,0v66.78c0,22.29,18.18,40.42,40.52,40.42h59.94v24.47
		c0,5.31,6.45,8.49,10.66,5.24l33.39-25.78v74.45c0,16.88,13.76,30.6,30.68,30.6h40.61v15.44c0,5.31,6.45,8.49,10.66,5.24
		l26.79-20.68h7.91c16.92,0,30.68-13.73,30.68-30.6v-11.75c0-8.54-13.24-8.54-13.24,0v11.75c0,9.58-7.82,17.37-17.44,17.37h-10.17
		c-1.46,0-2.89,0.49-4.04,1.38l-17.91,13.83v-8.59c0-3.65-2.96-6.62-6.62-6.62h-47.23c-9.62,0-17.44-7.79-17.44-17.37v-85.71
		c0-9.58,7.82-17.37,17.44-17.37h85.97c9.62,0,17.44,7.79,17.44,17.37v32.49c0,8.54,13.24,8.54,13.24,0v-32.49
		c0-16.88-13.76-30.6-30.68-30.6h-59.04c0.05-0.83,0.08-34.25,0.08-34.25c5.84,2.35,12.09,3.57,18.53,3.57h73.93v32.44
		c0,5.3,6.42,8.48,10.64,5.26l49.28-37.69h19.79c27.36,0,49.61-22.2,49.61-49.48V70.56C457.96,43.27,435.71,21.08,408.35,21.08
		L408.35,21.08z"/>
	<path class="st25" d="M348.07,69.97c-8.4-2.15-16.97,4.49-16.97,13.18c0,9.49-3.46,18.63-9.73,25.74l-18.23,20.63
		c-1.18-1.81-3.22-3.01-5.54-3.01H262c-3.66,0-6.62,2.96-6.62,6.62v80.09c0,3.65,2.96,6.62,6.62,6.62h35.6
		c2.67,0,4.97-1.59,6.02-3.87c7.21,4.4,15.56,6.78,24.05,6.78h62.91c9.61,0,17.54-8.34,17.09-17.93c-0.2-4.25,0.02-61.26,0.02-62.53
		c0-9.43-7.68-17.11-17.09-17.11l-32.71-0.1l1.35-3.21c6.19-14.66,5.17-31.66-2.72-45.47C354.67,73.18,351.67,70.89,348.07,69.97
		C344.47,69.05,351.67,70.89,348.07,69.97C339.67,67.83,351.67,70.89,348.07,69.97L348.07,69.97z M290.98,206.6h-22.36v-66.85h22.36
		V206.6z M390.57,138.42c2.14,0,3.88,1.74,3.88,3.88c0,1.26-0.01,4.68-0.03,9.31c-0.1,25.58-0.16,49.81,0.03,53.84
		c0.07,1.45-0.64,2.42-1.07,2.87c-0.74,0.77-1.74,1.2-2.81,1.2h-62.91c-7.5,0-14.84-2.6-20.67-7.32l-2.79-2.26v-51.65l27.08-30.64
		c8.41-9.53,13.04-21.79,13.04-34.5c0-0.37,0.51-0.47,0.68-0.18c5.86,10.26,6.62,22.88,2.02,33.76l-5.22,12.37
		c-0.86,2.04-0.65,4.38,0.58,6.22c1.22,1.85,3.29,2.96,5.5,2.97L390.57,138.42z"/>
	<path class="st25" d="M90.67,250.94c-3.66,0-6.62,2.96-6.62,6.62c0,3.65,2.96,6.62,6.62,6.62h19.51l-3.64,22.04
		c-0.6,3.61,1.84,7.01,5.45,7.61c0.37,0.06,0.73,0.09,1.09,0.09c3.18,0,5.99-2.3,6.52-5.54l4-24.2h15.97l-3.64,22.04
		c-0.6,3.61,1.84,7.01,5.45,7.61c0.37,0.06,0.73,0.09,1.09,0.09c3.18,0,5.99-2.3,6.52-5.54l4-24.2h26.55c3.66,0,6.62-2.96,6.62-6.62
		c0-3.65-2.96-6.62-6.62-6.62h-24.37l2.67-16.14h21.7c3.66,0,6.62-2.96,6.62-6.62c0-3.65-2.96-6.62-6.62-6.62h-19.51l3.64-22.04
		c0.6-3.61-1.84-7.01-5.45-7.61c-3.61-0.6-7.01,1.84-7.61,5.45l-4,24.2h-15.97l3.64-22.04c0.6-3.61-1.84-7.01-5.45-7.61
		c-3.61-0.6-7.01,1.84-7.61,5.45l-4,24.2H90.67c-3.66,0-6.62,2.96-6.62,6.62s2.96,6.62,6.62,6.62h24.37l-2.67,16.14L90.67,250.94z
		 M128.45,234.8h15.97l-2.67,16.14h-15.97L128.45,234.8z"/>
	<path class="st25" d="M252.09,351.27c-5.34-4.4-12.45-6.14-19.58-4.4c-9.14,2.22-18.36,10.76-18.36,24.84
		c0,8.76,3.2,16.37,9.78,23.26c5.37,5.63,13.13,10.97,25.15,17.35c0.97,0.51,2.03,0.77,3.1,0.77c1.07,0,2.13-0.26,3.1-0.77
		c20.96-11.11,34.93-22.27,34.93-40.6c0-14.16-9.55-22.61-19.01-24.71C264.07,345.42,257.18,347.09,252.09,351.27L252.09,351.27z
		 M276.96,371.71c0,9.89-6.56,17.2-24.79,27.24c-18.23-10.04-24.79-17.35-24.79-27.24c0-7.36,4.26-11.01,8.25-11.98
		c0.74-0.18,1.52-0.28,2.33-0.28c3,0,6.3,1.39,8.33,5.33c1.16,2.24,3.5,3.63,6.01,3.58c2.52-0.05,4.8-1.53,5.87-3.82
		c2.14-4.59,6.65-5.4,10.15-4.62C272.5,360.84,276.96,364.43,276.96,371.71z"/>
</g>
</svg>
