<?xml version="1.0" encoding="utf-8"?>
<!-- Generator: Adobe Illustrator 23.1.0, SVG Export Plug-In . SVG Version: 6.00 Build 0)  -->
<svg version="1.1" id="Layer_1" xmlns="http://www.w3.org/2000/svg" xmlns:xlink="http://www.w3.org/1999/xlink" x="0px" y="0px"
	 viewBox="0 0 500 500" style="enable-background:new 0 0 500 500;" xml:space="preserve">
<style type="text/css">
	.st0{fill:#F1CE35;}
	.st1{fill:#FFFFFF;}
	.st2{fill:#F7E27E;}
	.st3{fill:#401449;}
	.st4{fill:#B8D661;}
	.st5{fill:#E0E786;}
	.st6{fill:#C64445;}
	.st7{fill:#E27273;}
	.st8{fill:#83C0E9;}
	.st9{fill:#A3DEF9;}
	.st10{fill:#8B4397;}
	.st11{fill:#9E6A99;}
	.st12{fill:#E1E6EA;}
	.st13{fill:#A36F58;}
	.st14{fill:#C69974;}
	.st15{fill:#DFB78F;}
	.st16{fill:#F6E9CB;}
	.st17{fill:#F7F4F1;}
	.st18{fill:#EBE0DB;}
	.st19{fill:#FFD36C;}
	.st20{fill:#99D9E8;}
	.st21{fill:#60C9E0;}
	.st22{fill:#72A0D5;}
	.st23{fill:#F59085;}
	.st24{fill:#F06EA9;}
	.st25{fill:#010101;}
	.st26{fill:#C6C8CA;}
	.st27{fill:#DBD8DB;}
	.st28{fill:#C8C5C9;}
	.st29{fill:#C1D8F0;}
	.st30{fill:#ECEAEC;}
	.st31{fill:#A6C8EA;}
	.st32{fill:#454E5A;}
	.st33{fill:#E0667D;}
	.st34{fill:#DD4957;}
	.st35{fill:#EDC964;}
	.st36{fill:#E6B93F;}
	.st37{fill:#87828E;}
	.st38{fill:#6CCAF2;}
	.st39{fill:#EF4D75;}
	.st40{fill:#A4A4A5;}
	.st41{fill:#E6E7E8;}
	.st42{fill:#79D2F3;}
	.st43{fill:#54B1E4;}
	.st44{fill:#60276D;}
</style>
<g>
	<polygon class="st13" points="359.39,404.38 195.21,404.38 92.6,472.8 92.59,404.38 31.04,404.38 31.04,41.83 359.39,41.83 	"/>
	<rect x="31.04" y="34.99" class="st1" width="328.35" height="321.51"/>
	<rect x="31.04" y="62.35" class="st14" width="328.35" height="307.83"/>
	<path class="st3" d="M31.04,258.35c-2.45,0-4.44-1.99-4.44-4.45V34.99c0-2.46,1.99-4.45,4.44-4.45h232.57
		c2.45,0,4.44,1.99,4.44,4.45c0,2.46-1.99,4.45-4.44,4.45H35.48V253.9C35.48,256.36,33.49,258.35,31.04,258.35z"/>
	<path class="st3" d="M31.04,319.91c-2.45,0-4.44-1.99-4.44-4.44v-34.2c0-2.45,1.99-4.44,4.44-4.44c2.45,0,4.44,1.99,4.44,4.44v34.2
		C35.48,317.91,33.49,319.91,31.04,319.91z"/>
	<path class="st3" d="M92.6,477.25c-0.72,0-1.44-0.18-2.1-0.53c-1.45-0.77-2.35-2.28-2.35-3.92l-0.01-63.97H31.04
		c-2.45,0-4.44-1.99-4.44-4.44v-61.57c0-2.46,1.99-4.45,4.44-4.45c2.45,0,4.44,1.99,4.44,4.45v57.12h57.11
		c2.46,0,4.45,1.99,4.45,4.45l0.01,60.1l95.7-63.8c0.73-0.49,1.59-0.75,2.46-0.75h159.73v-84.49c0-2.46,1.99-4.45,4.45-4.45
		c2.45,0,4.45,1.99,4.45,4.45v88.94c0,2.45-1.99,4.44-4.45,4.44H196.55L95.06,476.5C94.32,476.99,93.46,477.25,92.6,477.25z"/>
	<path class="st3" d="M359.39,292.53c-2.45,0-4.45-1.99-4.45-4.45V39.44h-63.96c-2.46,0-4.45-1.99-4.45-4.45
		c0-2.46,1.99-4.45,4.45-4.45h68.41c2.45,0,4.45,1.99,4.45,4.45v253.09C363.83,290.54,361.84,292.53,359.39,292.53z"/>
	<path class="st4" d="M167.84,253.88h54.72v112.29c0,2.21-1.79,4-4,4h-48.72c-1.1,0-2-0.9-2-2V253.88z"/>
	<path class="st1" d="M167.84,288.08h54.72v78.09c0,2.21-1.79,4-4,4h-48.72c-1.1,0-2-0.9-2-2V288.08z"/>
	<path class="st5" d="M167.84,274.4h54.72v74.66c0,2.21-1.79,4-4,4h-48.72c-1.1,0-2-0.9-2-2V274.4z"/>
	<path class="st3" d="M195.21,374.62h-13.68c-10,0-18.12-8.13-18.12-18.13V253.88c0-2.46,1.99-4.45,4.44-4.45h54.72
		c2.45,0,4.44,1.99,4.44,4.45v88.93C227.01,360.35,212.75,374.62,195.21,374.62z M172.29,258.33v98.16c0,5.09,4.14,9.24,9.23,9.24
		h13.68c12.64,0,22.92-10.27,22.92-22.92v-84.48H172.29z"/>
	<path class="st2" d="M222.56,284.65h29.78c0.55,0,1,0.45,1,1v45.89c0,0.55-0.45,1-1,1h-29.78V284.65z"/>
	<path class="st3" d="M246.51,336.99h-23.94c-2.45,0-4.44-1.99-4.44-4.44v-47.89c0-2.45,1.99-4.44,4.44-4.44h23.94
		c6.22,0,11.28,5.06,11.28,11.29v34.2C257.79,331.93,252.73,336.99,246.51,336.99z M227.01,328.09h19.5c1.32,0,2.39-1.07,2.39-2.39
		v-34.2c0-1.32-1.07-2.39-2.39-2.39h-19.5V328.09z"/>
	<path class="st4" d="M427.79,34.97c-97.93,89.4-205.23,82.1-205.23,82.1v136.8c0,0,107.3-7.31,205.23,82.1V34.97z"/>
	<path class="st1" d="M427.79,34.97c-97.93,89.4-205.23,82.1-205.23,82.1v102.6c0,0,106.28-7.01,205.23,47.9V34.97z"/>
	<path class="st5" d="M427.79,82.85c-95.96,60.54-205.23,54.74-205.23,54.74v88.92c0,0,110.98-3.6,205.23,41.05V82.85z"/>
	<path class="st3" d="M427.79,340.41c-1.09,0-2.16-0.4-3-1.16c-35.73-32.63-76.68-55.96-121.72-69.34c-2.35-0.7-3.69-3.17-3-5.53
		c0.7-2.35,3.2-3.7,5.53-2.99c43.23,12.84,82.79,34.59,117.74,64.68V44.85c-84.49,72.66-174.69,77.03-196.34,76.77v127.66
		c8.15-0.07,26.12,0.4,50.2,5.12c2.41,0.46,3.98,2.8,3.51,5.21c-0.47,2.4-2.77,4.01-5.22,3.51c-31.35-6.15-52.43-4.85-52.64-4.82
		c-1.22,0.1-2.44-0.35-3.33-1.19c-0.9-0.84-1.41-2.02-1.41-3.24v-136.8c0-1.23,0.51-2.41,1.41-3.25c0.9-0.84,2.07-1.27,3.34-1.19
		c1.04,0.07,106.67,6.03,201.93-80.95c1.31-1.19,3.19-1.49,4.79-0.78c1.61,0.71,2.65,2.3,2.65,4.07v300.99
		c0,1.77-1.04,3.37-2.65,4.07C429.01,340.28,428.4,340.41,427.79,340.41z"/>
	<path class="st0" d="M89.75,117.06h132.81v136.82H89.75c-2.21,0-4-1.79-4-4V121.06C85.75,118.85,87.54,117.06,89.75,117.06z"/>
	<path class="st1" d="M89.75,117.06h132.81v109.45H89.75c-2.21,0-4-1.79-4-4V121.06C85.75,118.85,87.54,117.06,89.75,117.06z"/>
	<path class="st2" d="M89.75,137.58h132.81v88.93H89.75c-2.21,0-4-1.79-4-4v-80.93C85.75,139.37,87.54,137.58,89.75,137.58z"/>
	<path class="st3" d="M222.56,258.32H113.11c-17.54,0-31.81-14.27-31.81-31.81v-82.09c0-17.54,14.27-31.81,31.81-31.81h109.45
		c2.45,0,4.45,1.99,4.45,4.45v136.81C227.01,256.33,225.02,258.32,222.56,258.32z M113.11,121.51c-12.64,0-22.92,10.28-22.92,22.92
		v82.09c0,12.64,10.28,22.91,22.92,22.91h105.01V121.51H113.11z"/>
	<path class="st3" d="M154.16,224.12c-2.46,0-4.45-1.99-4.45-4.45v-68.4c0-2.46,1.99-4.45,4.45-4.45c2.45,0,4.44,1.99,4.44,4.45
		v68.4C158.6,222.13,156.61,224.12,154.16,224.12z"/>
	<path class="st3" d="M188.36,224.12c-2.46,0-4.45-1.99-4.45-4.45v-68.4c0-2.46,1.99-4.45,4.45-4.45c2.45,0,4.44,1.99,4.44,4.45
		v68.4C192.8,222.13,190.81,224.12,188.36,224.12z"/>
	<path class="st3" d="M119.95,224.12c-2.45,0-4.44-1.99-4.44-4.45v-68.4c0-2.46,1.99-4.45,4.44-4.45c2.46,0,4.45,1.99,4.45,4.45
		v68.4C124.4,222.13,122.41,224.12,119.95,224.12z"/>
	<path class="st6" d="M427.79,110.22v150.49C482.52,219.12,482.52,151.81,427.79,110.22z"/>
	<path class="st7" d="M427.79,110.22v109.45C472.07,201.96,482.52,151.81,427.79,110.22z"/>
	<path class="st3" d="M427.79,265.16c-0.67,0-1.35-0.15-1.98-0.46c-1.51-0.75-2.47-2.29-2.47-3.98v-150.5
		c0-1.69,0.95-3.23,2.47-3.98c1.52-0.76,3.32-0.58,4.67,0.44c27.6,20.98,42.8,48.97,42.8,78.79c0,29.83-15.2,57.81-42.8,78.79
		C429.69,264.85,428.75,265.16,427.79,265.16z M432.24,119.61v131.71c20.81-18.42,32.15-41.52,32.15-65.86
		C464.39,161.13,453.04,138.04,432.24,119.61z"/>
	<path class="st3" d="M58.4,463.56H31.04c-2.45,0-4.44-1.99-4.44-4.44c0-2.46,1.99-4.45,4.44-4.45H58.4c2.45,0,4.44,1.99,4.44,4.45
		C62.85,461.57,60.86,463.56,58.4,463.56z"/>
	<path class="st3" d="M44.72,477.25c-2.46,0-4.45-1.99-4.45-4.45v-27.37c0-2.45,1.99-4.44,4.45-4.44c2.45,0,4.44,1.99,4.44,4.44
		v27.37C49.17,475.26,47.18,477.25,44.72,477.25z"/>
	<path class="st3" d="M256.8,443.04h-27.36c-2.45,0-4.44-1.99-4.44-4.45c0-2.46,1.99-4.45,4.44-4.45h27.36
		c2.45,0,4.45,1.99,4.45,4.45C261.25,441.05,259.25,443.04,256.8,443.04z"/>
	<path class="st3" d="M243.12,456.72c-2.46,0-4.45-1.99-4.45-4.45v-27.36c0-2.46,1.99-4.45,4.45-4.45c2.45,0,4.44,1.99,4.44,4.45
		v27.36C247.56,454.73,245.57,456.72,243.12,456.72z"/>
	<path class="st3" d="M359.42,463.56h-27.36c-2.46,0-4.45-1.99-4.45-4.44c0-2.46,1.99-4.45,4.45-4.45h27.36
		c2.45,0,4.44,1.99,4.44,4.45C363.86,461.57,361.87,463.56,359.42,463.56z"/>
	<path class="st3" d="M345.74,477.25c-2.45,0-4.44-1.99-4.44-4.45v-27.37c0-2.45,1.99-4.44,4.44-4.44c2.46,0,4.45,1.99,4.45,4.44
		v27.37C350.18,475.26,348.19,477.25,345.74,477.25z"/>
	<path class="st3" d="M427.83,388.32h-27.36c-2.45,0-4.44-2-4.44-4.45c0-2.46,1.99-4.45,4.44-4.45h27.36c2.46,0,4.45,1.99,4.45,4.45
		C432.28,386.32,430.29,388.32,427.83,388.32z"/>
	<path class="st3" d="M414.15,402c-2.46,0-4.45-1.99-4.45-4.45v-27.36c0-2.46,1.99-4.45,4.45-4.45c2.45,0,4.44,1.99,4.44,4.45v27.36
		C418.6,400.01,416.61,402,414.15,402z"/>
	<path class="st3" d="M224.05,66.8h-94.3c-2.46,0-4.45-1.99-4.45-4.45c0-2.45,1.99-4.44,4.45-4.44h94.3c2.46,0,4.45,1.99,4.45,4.44
		C228.5,64.81,226.51,66.8,224.05,66.8z"/>
	<path class="st3" d="M102.39,66.8H87.24c-2.45,0-4.44-1.99-4.44-4.45c0-2.45,1.99-4.44,4.44-4.44h15.15c2.45,0,4.45,1.99,4.45,4.44
		C106.83,64.81,104.84,66.8,102.39,66.8z"/>
</g>
</svg>
