<?xml version="1.0" encoding="utf-8"?>
<!-- Generator: Adobe Illustrator 23.1.0, SVG Export Plug-In . SVG Version: 6.00 Build 0)  -->
<svg version="1.1" id="Layer_1" xmlns="http://www.w3.org/2000/svg" xmlns:xlink="http://www.w3.org/1999/xlink" x="0px" y="0px"
	 viewBox="0 0 500 500" style="enable-background:new 0 0 500 500;" xml:space="preserve">
<style type="text/css">
	.st0{fill:#F1CE35;}
	.st1{fill:#FFFFFF;}
	.st2{fill:#F7E27E;}
	.st3{fill:#401449;}
	.st4{fill:#B8D661;}
	.st5{fill:#E0E786;}
	.st6{fill:#C64445;}
	.st7{fill:#E27273;}
	.st8{fill:#83C0E9;}
	.st9{fill:#A3DEF9;}
	.st10{fill:#8B4397;}
	.st11{fill:#9E6A99;}
	.st12{fill:#E1E6EA;}
	.st13{fill:#A36F58;}
	.st14{fill:#C69974;}
	.st15{fill:#DFB78F;}
	.st16{fill:#F6E9CB;}
	.st17{fill:#F7F4F1;}
	.st18{fill:#EBE0DB;}
	.st19{fill:#FFD36C;}
	.st20{fill:#99D9E8;}
	.st21{fill:#60C9E0;}
	.st22{fill:#72A0D5;}
	.st23{fill:#F59085;}
	.st24{fill:#F06EA9;}
	.st25{fill:#010101;}
	.st26{fill:#C6C8CA;}
	.st27{fill:#DBD8DB;}
	.st28{fill:#C8C5C9;}
	.st29{fill:#C1D8F0;}
	.st30{fill:#ECEAEC;}
	.st31{fill:#A6C8EA;}
	.st32{fill:#454E5A;}
	.st33{fill:#E0667D;}
	.st34{fill:#DD4957;}
	.st35{fill:#EDC964;}
	.st36{fill:#E6B93F;}
	.st37{fill:#87828E;}
	.st38{fill:#6CCAF2;}
	.st39{fill:#EF4D75;}
	.st40{fill:#A4A4A5;}
	.st41{fill:#E6E7E8;}
	.st42{fill:#79D2F3;}
	.st43{fill:#54B1E4;}
	.st44{fill:#60276D;}
</style>
<g>
	<polygon class="st1" points="112.36,338.28 65.84,384.8 24.22,343.19 24.22,472.66 135.48,361.4 	"/>
	<polygon class="st16" points="135.48,361.4 24.22,472.66 153.69,472.66 112.08,431.04 158.59,384.52 	"/>
	<polygon class="st10" points="399.31,145.55 433.64,111.22 476.83,154.41 476.83,20.04 375.32,121.56 	"/>
	<polygon class="st11" points="385.66,63.23 351.32,97.56 375.32,121.56 476.83,20.04 342.47,20.04 	"/>
	<polygon class="st7" points="342.47,384.52 388.98,431.04 347.37,472.66 476.83,472.66 365.59,361.4 	"/>
	<polygon class="st6" points="435.22,384.8 388.71,338.28 365.59,361.4 476.83,472.66 476.83,343.19 	"/>
	<polygon class="st5" points="149.73,97.56 115.4,63.23 158.59,20.04 24.22,20.04 125.74,121.56 	"/>
	<polygon class="st1" points="24.22,20.04 24.22,154.41 67.41,111.22 101.75,145.55 125.74,121.56 	"/>
	<path class="st3" d="M153.69,477.25H24.22c-2.54,0-4.6-2.06-4.6-4.6V343.19c0-1.85,1.13-3.54,2.84-4.25c1.73-0.7,3.69-0.32,5.01,1
		l38.37,38.36l23.25-23.25c1.79-1.8,4.71-1.8,6.5,0c1.8,1.79,1.8,4.7,0,6.5l-26.51,26.51c-1.79,1.79-4.71,1.79-6.5,0l-33.77-33.77
		v113.78h113.77l-33.76-33.77c-1.8-1.8-1.8-4.71,0-6.5l43.27-43.27l-42.99-42.98c-1.8-1.79-1.8-4.7,0-6.5c1.8-1.79,4.71-1.79,6.5,0
		l46.24,46.24c0.85,0.86,1.35,2.03,1.35,3.24c0,1.23-0.49,2.4-1.35,3.26l-43.27,43.27l38.36,38.37c1.31,1.32,1.71,3.29,0.99,5.01
		C157.22,476.14,155.55,477.25,153.69,477.25z"/>
	<path class="st3" d="M24.22,159.01c-0.6,0-1.19-0.11-1.76-0.35c-1.71-0.71-2.84-2.39-2.84-4.24V20.04c0-2.54,2.06-4.6,4.6-4.6
		h134.37c1.86,0,3.54,1.13,4.25,2.85c0.71,1.71,0.32,3.69-0.99,5l-23.2,23.21c-1.8,1.8-4.71,1.8-6.51,0c-1.79-1.8-1.79-4.7,0-6.5
		l15.36-15.35H28.82v118.67l35.34-35.34c1.8-1.8,4.71-1.8,6.51,0l31.08,31.08l41.48-41.49l-31.08-31.08c-1.8-1.8-1.8-4.7,0-6.5
		c1.8-1.79,4.71-1.79,6.5,0l34.33,34.33c1.8,1.8,1.8,4.71,0,6.5L105,148.8c-1.73,1.73-4.78,1.73-6.51,0l-31.08-31.08l-39.94,39.94
		C26.59,158.54,25.42,159.01,24.22,159.01z"/>
	<path class="st3" d="M476.83,159.01c-1.19,0-2.37-0.46-3.25-1.35l-39.94-39.94l-31.08,31.08c-1.73,1.73-4.78,1.73-6.51,0
		l-47.98-47.99c-1.8-1.8-1.8-4.7,0-6.5l31.08-31.08l-39.95-39.94c-1.31-1.31-1.71-3.29-0.99-5c0.71-1.72,2.39-2.85,4.25-2.85h134.37
		c2.54,0,4.6,2.06,4.6,4.6v134.37c0,1.85-1.13,3.53-2.84,4.24C478.02,158.9,477.43,159.01,476.83,159.01z M433.64,106.62
		c1.17,0,2.35,0.45,3.25,1.35l35.35,35.34V24.64H353.56l35.35,35.34c0.85,0.86,1.35,2.04,1.35,3.26c0,1.22-0.49,2.39-1.35,3.25
		l-31.08,31.08l41.48,41.49l31.08-31.08C431.29,107.08,432.47,106.62,433.64,106.62z"/>
	<path class="st3" d="M476.83,477.25H347.37c-1.86,0-3.54-1.11-4.25-2.83c-0.71-1.72-0.32-3.69,0.99-5.01l38.37-38.37l-43.27-43.27
		c-0.85-0.86-1.35-2.03-1.35-3.26c0-1.21,0.49-2.38,1.35-3.24l46.24-46.24c1.8-1.79,4.71-1.79,6.5,0l27.4,27.41
		c1.8,1.79,1.8,4.7,0,6.5c-1.8,1.79-4.71,1.79-6.5,0l-24.16-24.16l-39.74,39.73l43.27,43.27c0.86,0.86,1.35,2.03,1.35,3.25
		c0,1.22-0.49,2.4-1.35,3.26l-33.77,33.77h113.77V354.29l-33.76,33.77c-1.8,1.79-4.71,1.79-6.5,0c-1.8-1.8-1.8-4.71,0-6.5
		l41.61-41.62c1.32-1.32,3.28-1.71,5.01-1c1.71,0.71,2.84,2.4,2.84,4.25v129.47C481.43,475.19,479.38,477.25,476.83,477.25z"/>
	<path class="st3" d="M95.52,321.65c-1.77,0-3.46-1.03-4.21-2.76c-20.1-46.1-20.1-98.99,0.01-145.09c1.01-2.34,3.71-3.4,6.05-2.38
		c2.32,1.01,3.39,3.72,2.37,6.05c-19.08,43.77-19.09,93.97-0.01,137.75c1.01,2.33-0.05,5.04-2.37,6.05
		C96.75,321.53,96.13,321.65,95.52,321.65z"/>
	<path class="st3" d="M50.05,321.7c-1.91,0-3.7-1.21-4.35-3.12C29.86,272,29.86,220.71,45.7,174.15c0.81-2.41,3.42-3.71,5.83-2.87
		c2.4,0.82,3.69,3.42,2.88,5.83c-15.18,44.65-15.18,93.85,0.01,138.51c0.82,2.4-0.47,5.02-2.88,5.83
		C51.04,321.62,50.54,321.7,50.05,321.7z"/>
	<path class="st3" d="M405.53,321.66c-0.61,0-1.23-0.12-1.84-0.38c-2.33-1.01-3.39-3.72-2.37-6.05
		c19.09-43.77,19.09-93.97,0.01-137.75c-1.01-2.33,0.05-5.04,2.37-6.05c2.34-1,5.04,0.05,6.05,2.38
		c20.1,46.11,20.1,98.99-0.01,145.09C408.99,320.63,407.3,321.66,405.53,321.66z"/>
	<path class="st3" d="M451.02,321.67c-0.49,0-0.99-0.08-1.48-0.25c-2.4-0.82-3.69-3.42-2.87-5.83
		c15.18-44.66,15.17-93.85-0.01-138.51c-0.82-2.4,0.47-5.02,2.88-5.83c2.4-0.82,5.02,0.47,5.83,2.88
		c15.85,46.56,15.85,97.85,0.01,144.43C454.72,320.46,452.93,321.67,451.02,321.67z"/>
	<path class="st1" d="M164.01,158.28v109.84c0,11.78,8.11,21.59,19.03,24.35V128.03C171.55,133.57,164.01,145.23,164.01,158.28z"/>
	<path class="st2" d="M298.95,122.01c-14.62-3.46-29.61-5.21-44.68-5.21h-5.4c-15.78,0-31.48,1.84-46.8,5.44
		c-4.88,1.15-9.74,2.46-14.54,3.97l0,0c-1.56,0.49-3.04,1.13-4.5,1.83v164.44c1.99,0.51,4.03,0.86,6.17,0.86h14.03l-1.17-31.34
		h96.88V122.01z"/>
	<path class="st0" d="M313.69,126.11L313.69,126.11c-4.86-1.56-9.77-2.92-14.73-4.09v139.97l-1.13,31.34h13.98
		c13.92,0,25.21-11.29,25.21-25.21V158.11C337.02,143.51,327.59,130.58,313.69,126.11z"/>
	<polygon class="st1" points="202.08,261.99 208.5,440.21 292.53,440.21 298.95,261.99 	"/>
	<polygon class="st9" points="225.08,261.99 228.24,440.21 292.53,440.21 298.95,261.99 	"/>
	<path class="st3" d="M292.53,444.81H208.5c-2.47,0-4.5-1.96-4.59-4.43l-4.44-123.16c-0.08-2.54,1.9-4.68,4.43-4.76
		c2.51-0.11,4.67,1.89,4.76,4.42l4.28,118.74h32.98v-131.2c0-2.54,2.06-4.59,4.6-4.59s4.6,2.06,4.6,4.59v131.2h32.98l2.01-55.65
		c0.1-2.54,2.33-4.61,4.76-4.43c2.54,0.09,4.52,2.22,4.43,4.76l-2.16,60.08C297.03,442.85,295,444.81,292.53,444.81z"/>
	<path class="st3" d="M295.48,362.89c-0.05,0-0.11,0-0.16-0.01c-2.54-0.08-4.52-2.21-4.43-4.75l3.3-91.55h-87.35l0.92,25.73
		c0.09,2.54-1.89,4.67-4.43,4.76c-2.45,0.14-4.66-1.9-4.76-4.43l-1.1-30.49c-0.05-1.25,0.42-2.46,1.28-3.36
		c0.87-0.9,2.06-1.4,3.31-1.4h96.88c1.25,0,2.44,0.51,3.31,1.4c0.86,0.9,1.33,2.11,1.28,3.36l-3.47,96.31
		C299.98,360.94,297.95,362.89,295.48,362.89z"/>
	<path class="st3" d="M311.81,297.93h-13.98c-1.25,0-2.44-0.51-3.31-1.41c-0.87-0.89-1.33-2.11-1.28-3.35l0.96-26.58h-87.35
		l0.99,26.57c0.05,1.25-0.42,2.46-1.28,3.36c-0.87,0.9-2.06,1.41-3.31,1.41h-14.02c-16.44,0-29.81-13.37-29.81-29.81v-39.21
		c0-2.54,2.06-4.59,4.6-4.59c2.54,0,4.59,2.06,4.59,4.59v39.21c0,11.37,9.25,20.62,20.61,20.62h9.25l-0.99-26.55
		c0-0.07-0.01-0.13-0.01-0.13v-83.78c0-2.54,2.06-4.6,4.6-4.6c2.54,0,4.59,2.06,4.59,4.6v79.11h87.69v-79.11
		c0-2.54,2.06-4.6,4.59-4.6c2.54,0,4.6,2.06,4.6,4.6v83.71c0,0.11-0.01,0.23-0.01,0.33l-0.95,26.42h9.22
		c11.37,0,20.61-9.25,20.61-20.62V158.11c0-12.64-8.09-23.75-20.13-27.62c-18.78-6.03-38.3-9.09-58.01-9.09h-5.4
		c-20.37,0-40.53,3.1-59.95,9.2c-12.15,3.82-20.32,14.94-20.32,27.68v49.43c0,2.54-2.06,4.59-4.59,4.59c-2.54,0-4.6-2.06-4.6-4.59
		v-49.43c0-16.77,10.75-31.42,26.76-36.45c20.31-6.38,41.41-9.63,62.71-9.63h5.4c20.67,0,41.14,3.21,60.82,9.53
		c15.86,5.1,26.52,19.72,26.52,36.37v110.01C341.61,284.55,328.25,297.93,311.81,297.93z"/>
	<path class="st3" d="M251.11,245.37c-2.54,0-4.59-2.06-4.59-4.6V116.8c0-2.54,2.06-4.6,4.59-4.6c2.54,0,4.6,2.06,4.6,4.6v123.96
		C255.71,243.31,253.65,245.37,251.11,245.37z"/>
	<path class="st12" d="M250.51,440.21h-64.94c-2.21,0-4,1.79-4,4v28.44h68.94V440.21z"/>
	<path class="st3" d="M250.51,477.25h-68.94c-2.54,0-4.6-2.06-4.6-4.6v-4.15c0-18.13,14.76-32.89,32.89-32.89h40.65
		c2.54,0,4.6,2.06,4.6,4.59v32.44C255.12,475.19,253.06,477.25,250.51,477.25z M186.18,468.06h59.73v-23.25h-36.05
		C196.95,444.81,186.41,455.2,186.18,468.06z"/>
	<path class="st26" d="M315.44,440.21h-64.93v32.44h68.93v-28.44C319.44,442,317.65,440.21,315.44,440.21z"/>
	<path class="st3" d="M319.44,477.25h-68.93c-2.54,0-4.6-2.06-4.6-4.6v-32.44c0-2.54,2.06-4.59,4.6-4.59h40.65
		c18.14,0,32.89,14.76,32.89,32.89v4.15C324.05,475.19,321.99,477.25,319.44,477.25z M255.12,468.06h59.73
		c-0.23-12.86-10.77-23.25-23.68-23.25h-36.04V468.06z"/>
	<path class="st1" d="M250.51,20.04c-18.56,0-33.61,16.56-33.61,36.98c0,20.42,15.05,36.97,33.61,36.97
		c18.55,0,33.61-16.55,33.61-36.97C284.13,36.6,269.07,20.04,250.51,20.04z"/>
	<path class="st16" d="M261.82,22.54c-12.32,0-22.3,15.43-22.3,34.47c0,19.03,9.98,34.46,22.3,34.46c12.31,0,22.3-15.43,22.3-34.46
		C284.13,37.98,274.13,22.54,261.82,22.54z"/>
	<path class="st3" d="M250.51,98.58c-21.07,0-38.21-18.65-38.21-41.57c0-22.92,17.14-41.58,38.21-41.58s38.21,18.65,38.21,41.58
		C288.73,79.93,271.58,98.58,250.51,98.58z M250.51,24.64c-16,0-29.01,14.52-29.01,32.38c0,17.85,13.01,32.37,29.01,32.37
		s29.01-14.52,29.01-32.37C279.53,39.16,266.52,24.64,250.51,24.64z"/>
</g>
</svg>
