<?xml version="1.0" encoding="utf-8"?>
<!-- Generator: Adobe Illustrator 23.1.0, SVG Export Plug-In . SVG Version: 6.00 Build 0)  -->
<svg version="1.1" id="Layer_1" xmlns="http://www.w3.org/2000/svg" xmlns:xlink="http://www.w3.org/1999/xlink" x="0px" y="0px"
	 viewBox="0 0 500 500" style="enable-background:new 0 0 500 500;" xml:space="preserve">
<style type="text/css">
	.st0{fill:#F1CE35;}
	.st1{fill:#FFFFFF;}
	.st2{fill:#F7E27E;}
	.st3{fill:#401449;}
	.st4{fill:#B8D661;}
	.st5{fill:#E0E786;}
	.st6{fill:#C64445;}
	.st7{fill:#E27273;}
	.st8{fill:#83C0E9;}
	.st9{fill:#A3DEF9;}
	.st10{fill:#8B4397;}
	.st11{fill:#9E6A99;}
	.st12{fill:#E1E6EA;}
	.st13{fill:#A36F58;}
	.st14{fill:#C69974;}
	.st15{fill:#DFB78F;}
	.st16{fill:#F6E9CB;}
	.st17{fill:#F7F4F1;}
	.st18{fill:#EBE0DB;}
	.st19{fill:#FFD36C;}
	.st20{fill:#99D9E8;}
	.st21{fill:#60C9E0;}
	.st22{fill:#72A0D5;}
	.st23{fill:#F59085;}
	.st24{fill:#F06EA9;}
	.st25{fill:#010101;}
	.st26{fill:#C6C8CA;}
	.st27{fill:#DBD8DB;}
	.st28{fill:#C8C5C9;}
	.st29{fill:#C1D8F0;}
	.st30{fill:#ECEAEC;}
	.st31{fill:#A6C8EA;}
	.st32{fill:#454E5A;}
	.st33{fill:#E0667D;}
	.st34{fill:#DD4957;}
	.st35{fill:#EDC964;}
	.st36{fill:#E6B93F;}
	.st37{fill:#87828E;}
	.st38{fill:#6CCAF2;}
	.st39{fill:#EF4D75;}
	.st40{fill:#A4A4A5;}
	.st41{fill:#E6E7E8;}
	.st42{fill:#79D2F3;}
	.st43{fill:#54B1E4;}
	.st44{fill:#60276D;}
</style>
<g>
	<path class="st37" d="M294.58,449.27h-82.83l6.99-188.85h68.84L294.58,449.27z"/>
	<path class="st1" d="M447.91,332.02H58.42c-15.28,0-27.61-12.33-27.61-27.61V67.33c0-15.28,12.33-27.61,27.61-27.61h389.49
		c15.28,0,27.61,12.33,27.61,27.61v237.26C475.52,319.68,463.19,332.02,447.91,332.02L447.91,332.02z"/>
	<path class="st38" d="M71.32,79.71h363.69v175.64H71.32L71.32,79.71z"/>
	<path class="st39" d="M293.81,167.53l-81.3-46.94v93.87L293.81,167.53z"/>
	<path class="st40" d="M243.71,332.02l-4.34,117.25h-27.61l4.34-117.25H243.71z"/>
	<path class="st41" d="M86.03,332.02H58.42c-15.28,0-27.61-12.33-27.61-27.61V67.33c0-15.28,12.33-27.61,27.61-27.61h27.61
		c-15.28,0-27.61,12.33-27.61,27.61v237.08C58.42,319.68,70.75,332.02,86.03,332.02z"/>
	<path class="st42" d="M71.33,79.71h27.61v175.64H71.33V79.71z"/>
	<path class="st43" d="M407.4,79.71h27.61v175.64H407.4V79.71z"/>
	<path class="st41" d="M475.52,67.33v237.26c0,15.09-12.33,27.43-27.61,27.43H420.3c15.28,0,27.61-12.33,27.61-27.43V67.33
		c0-15.28-12.33-27.61-27.61-27.61h27.61C463.19,39.72,475.52,52.05,475.52,67.33z"/>
	<g>
		<path class="st1" d="M459.82,352.85l-13.29-7.68c-2.54-1.45-3.94-4.31-3.5-7.2c0.33-2.3,0.52-4.64,0.52-7.03
			c0-2.26-0.17-4.51-0.48-6.7c-0.42-2.89,0.98-5.72,3.5-7.18l14.45-8.34c3.42-1.97,4.6-6.35,2.61-9.77l-6.2-10.75
			c-1.97-3.42-6.35-4.58-9.77-2.61l-14.74,8.5c-2.47,1.44-5.58,1.31-7.84-0.42c-3.24-2.47-6.81-4.53-10.62-6.09
			c-2.69-1.1-4.4-3.77-4.4-6.68v-18.41c0-3.94-3.22-7.14-7.16-7.14h-12.41c-3.96,0-7.16,3.2-7.16,7.14v18.48
			c0,2.89-1.71,5.5-4.38,6.59c-3.46,1.42-6.74,3.26-9.72,5.43c-2.26,1.64-5.3,1.75-7.71,0.35l-16.99-9.81
			c-3.42-1.99-7.8-0.81-9.77,2.61l-6.2,10.75c-1.99,3.42-0.81,7.79,2.61,9.77l15.83,9.13c2.6,1.49,3.98,4.44,3.48,7.38
			c-0.42,2.54-0.64,5.12-0.64,7.77c0,1.23,0.04,2.43,0.13,3.63c0.22,2.74-1.16,5.36-3.55,6.72l-16.44,9.5
			c-3.42,1.97-4.58,6.35-2.61,9.77l6.2,10.73c1.97,3.42,6.35,4.6,9.77,2.63l14.43-8.34c2.65-1.53,5.96-1.2,8.28,0.81
			c3.26,2.82,6.9,5.19,10.86,7.03c2.48,1.18,4.05,3.7,4.05,6.46v17.14c0,3.94,3.2,7.14,7.14,7.14h12.41c3.96,0,7.16-3.2,7.16-7.14
			v-15.19c0-3.02,1.88-5.72,4.71-6.72c4.51-1.6,8.71-3.88,12.46-6.7c2.26-1.69,5.34-1.84,7.8-0.42l13.82,7.99
			c3.42,1.97,7.8,0.81,9.77-2.61l6.2-10.75C464.42,359.2,463.24,354.82,459.82,352.85L459.82,352.85z M415.88,350.15
			c-10.6,10.6-27.79,10.6-38.4,0c-10.6-10.6-10.6-27.78,0-38.38c10.6-10.62,27.79-10.62,38.4,0
			C426.47,322.37,426.47,339.55,415.88,350.15z"/>
	</g>
	<g>
		<path class="st44" d="M447.91,32.35H58.42c-19.28,0-34.97,15.69-34.97,34.97v237.08c0,19.28,15.69,34.97,34.97,34.97h150.03
			l-3.8,102.53h-36.53c-4.07,0-7.36,3.3-7.36,7.36s3.3,7.36,7.36,7.36h170.26c4.07,0,7.36-3.3,7.36-7.36s-3.3-7.36-7.36-7.36h-36.71
			l-3.8-102.53H335l-8.72,5.03c-6.93,4-9.32,12.9-5.31,19.83l6.2,10.74c1.94,3.36,5.07,5.76,8.82,6.76
			c3.75,1.01,7.66,0.49,11.02-1.45l14.3-8.26c3.72,3.21,7.85,5.89,12.27,7.98v17c0,8.01,6.51,14.52,14.52,14.52h12.4
			c8.01,0,14.52-6.51,14.52-14.52v-15.03c5.03-1.81,9.76-4.34,14.05-7.54l13.71,7.92c3.36,1.94,7.27,2.45,11.02,1.45
			c3.75-1,6.88-3.41,8.82-6.76l6.2-10.74c4-6.93,1.62-15.83-5.31-19.83l-12.56-7.25c17.87-1.54,31.94-16.47,31.94-34.64V67.33
			C482.88,48.04,467.19,32.35,447.91,32.35L447.91,32.35z M219.39,441.91l3.8-102.53h59.95l3.8,102.53H219.39z M455.96,359.13
			l-6,10.38l-13.66-7.89c-5.05-2.91-11.29-2.55-15.91,0.92c-3.2,2.4-6.73,4.3-10.49,5.63c-5.75,2.04-9.62,7.53-9.62,13.66v14.97
			H388.3v-16.93c0-5.61-3.26-10.76-8.3-13.12c-3.3-1.54-6.38-3.54-9.15-5.94c-4.68-4.06-11.43-4.71-16.78-1.62l-14.25,8.23l-6-10.38
			l16.26-9.39c9.83-5.67,6.16-14.44,7.64-23.26c1-5.95-1.83-11.97-7.05-14.99l-15.65-9.04l5.99-10.38l16.82,9.71
			c4.95,2.86,11.12,2.56,15.71-0.77c2.55-1.84,5.3-3.38,8.2-4.56c5.44-2.23,8.95-7.49,8.95-13.41V262.7h11.99v18.19
			c0,5.96,3.52,11.26,8.97,13.49c3.19,1.31,6.2,3.04,8.96,5.13c4.62,3.52,10.9,3.9,15.99,0.96l14.56-8.41l6,10.38l-14.26,8.23
			c-5.17,2.98-7.96,8.72-7.11,14.61c0.55,3.82,0.54,7.74-0.04,11.58c-0.89,5.91,1.9,11.67,7.1,14.67L455.96,359.13z M78.68,247.98
			V87.07h348.96v160.91C410.66,247.98,91.51,247.98,78.68,247.98z M450.5,324.47c-0.04-0.37-0.06-0.74-0.12-1.1l14.31-8.26
			c0.24-0.14,0.47-0.3,0.7-0.46C462.3,319.92,456.86,323.66,450.5,324.47L450.5,324.47z M468.16,292.07l-4.35-7.53
			c-1.94-3.36-5.07-5.76-8.82-6.77c-3.75-1-7.66-0.49-11.02,1.45l-14.63,8.45c-3.68-2.78-7.69-5.07-11.94-6.83v-18.13h17.61
			c4.07,0,7.36-3.3,7.36-7.36V79.71c0-4.07-3.3-7.36-7.36-7.36H71.32c-4.07,0-7.36,3.3-7.36,7.36v175.64c0,4.07,3.3,7.36,7.36,7.36
			h304.64v18.13c-3.84,1.59-7.5,3.63-10.89,6.06l-16.88-9.74c-3.36-1.94-7.27-2.45-11.02-1.45c-3.4,0.91-6.28,2.99-8.24,5.87H130.45
			v-7.63c0-4.07-3.3-7.36-7.36-7.36s-7.36,3.3-7.36,7.36v7.63H71.32c-4.07,0-7.36,3.3-7.36,7.36s3.3,7.36,7.36,7.36h44.41v7.63
			c0,4.07,3.3,7.36,7.36,7.36s7.36-3.3,7.36-7.36v-7.63h190.39c-0.77,2.56-0.84,5.28-0.13,7.93c1,3.75,3.41,6.87,6.76,8.82
			l15.7,9.07c-0.14,0.84-0.22,1.7-0.31,2.55H58.42c-11.16,0-20.25-9.08-20.25-20.25V67.33c0-11.16,9.08-20.25,20.25-20.25h389.49
			c11.16,0,20.25,9.08,20.25,20.25L468.16,292.07z"/>
		<path class="st44" d="M297.5,161.15l-81.3-46.94c-4.91-2.84-11.04,0.73-11.04,6.38v93.87c0,5.7,6.18,9.19,11.04,6.38l81.3-46.94
			C302.39,171.07,302.4,163.98,297.5,161.15L297.5,161.15z M219.88,201.71v-68.37l59.21,34.18L219.88,201.71z"/>
		<path class="st44" d="M404.11,107.7h-15.76c-4.07,0-7.36,3.3-7.36,7.36s3.3,7.36,7.36,7.36h15.76c4.07,0,7.36-3.3,7.36-7.36
			S408.17,107.7,404.11,107.7z"/>
		<path class="st44" d="M360.74,107.7h-36.81c-4.07,0-7.36,3.3-7.36,7.36s3.3,7.36,7.36,7.36h36.81c4.07,0,7.36-3.3,7.36-7.36
			S364.81,107.7,360.74,107.7z"/>
		<path class="st44" d="M372.29,306.56c-13.49,13.48-13.49,35.32,0,48.79c6.51,6.52,15.18,10.11,24.4,10.11
			c30.51,0,46.14-37.15,24.4-58.9C407.61,293.07,385.77,293.06,372.29,306.56L372.29,306.56z M410.67,344.94
			c-3.73,3.73-8.7,5.79-13.99,5.79c-7.89,0-14.68-4.58-17.88-11.35h35.76C413.61,341.39,412.33,343.28,410.67,344.94z
			 M377.94,324.65c6-17.88,31.45-17.96,37.46,0H377.94z"/>
	</g>
</g>
</svg>
