<?xml version="1.0" encoding="utf-8"?>
<!-- Generator: Adobe Illustrator 23.1.0, SVG Export Plug-In . SVG Version: 6.00 Build 0)  -->
<svg version="1.1" id="Layer_1" xmlns="http://www.w3.org/2000/svg" xmlns:xlink="http://www.w3.org/1999/xlink" x="0px" y="0px"
	 viewBox="0 0 500 500" style="enable-background:new 0 0 500 500;" xml:space="preserve">
<style type="text/css">
	.st0{fill:#F1CE35;}
	.st1{fill:#FFFFFF;}
	.st2{fill:#F7E27E;}
	.st3{fill:#401449;}
	.st4{fill:#B8D661;}
	.st5{fill:#E0E786;}
	.st6{fill:#C64445;}
	.st7{fill:#E27273;}
	.st8{fill:#83C0E9;}
	.st9{fill:#A3DEF9;}
	.st10{fill:#8B4397;}
	.st11{fill:#9E6A99;}
	.st12{fill:#E1E6EA;}
	.st13{fill:#A36F58;}
	.st14{fill:#C69974;}
	.st15{fill:#DFB78F;}
	.st16{fill:#F6E9CB;}
	.st17{fill:#F7F4F1;}
	.st18{fill:#EBE0DB;}
	.st19{fill:#FFD36C;}
	.st20{fill:#99D9E8;}
	.st21{fill:#60C9E0;}
	.st22{fill:#72A0D5;}
	.st23{fill:#F59085;}
	.st24{fill:#F06EA9;}
	.st25{fill:#010101;}
	.st26{fill:#C6C8CA;}
	.st27{fill:#DBD8DB;}
	.st28{fill:#C8C5C9;}
	.st29{fill:#C1D8F0;}
	.st30{fill:#ECEAEC;}
	.st31{fill:#A6C8EA;}
	.st32{fill:#454E5A;}
	.st33{fill:#E0667D;}
	.st34{fill:#DD4957;}
	.st35{fill:#EDC964;}
	.st36{fill:#E6B93F;}
	.st37{fill:#87828E;}
	.st38{fill:#6CCAF2;}
	.st39{fill:#EF4D75;}
	.st40{fill:#A4A4A5;}
	.st41{fill:#E6E7E8;}
	.st42{fill:#79D2F3;}
	.st43{fill:#54B1E4;}
	.st44{fill:#60276D;}
</style>
<g>
	<path class="st1" d="M468.17,253.88c0,120.91-98.02,218.92-218.92,218.92c-120.91,0-218.92-98.02-218.92-218.92
		c0-120.9,98.01-218.92,218.92-218.92C370.15,34.97,468.17,132.98,468.17,253.88z"/>
	<path class="st12" d="M468.17,253.88c0,120.91-98.02,184.72-218.92,184.72c-120.91,0-218.92-63.81-218.92-184.72
		c0-120.9,98.01-218.92,218.92-218.92C370.15,34.97,468.17,132.98,468.17,253.88z"/>
	<path class="st3" d="M339.97,59.04c-0.62,0-1.24-0.12-1.84-0.4c-7.33-3.35-14.94-6.31-22.61-8.79c-2.33-0.76-3.62-3.27-2.86-5.6
		c0.76-2.33,3.28-3.61,5.6-2.86c7.99,2.59,15.91,5.68,23.55,9.16c2.24,1.02,3.22,3.65,2.2,5.89
		C343.27,58.07,341.66,59.04,339.97,59.04z"/>
	<path class="st3" d="M33.43,295.3c-2.13,0-4.01-1.53-4.37-3.71c-2.11-12.36-3.17-25.04-3.17-37.71
		c0-123.16,100.2-223.36,223.37-223.36c12.49,0,25.01,1.04,37.23,3.09c2.42,0.41,4.06,2.7,3.65,5.12c-0.4,2.43-2.73,4.06-5.12,3.65
		c-11.73-1.96-23.76-2.97-35.76-2.97c-118.26,0-214.48,96.22-214.48,214.47c0,12.16,1.03,24.35,3.04,36.22
		c0.42,2.43-1.21,4.72-3.64,5.13C33.93,295.27,33.68,295.3,33.43,295.3z"/>
	<path class="st3" d="M249.25,477.25c-99,0-184.89-63.57-213.71-158.19c-0.72-2.34,0.61-4.83,2.95-5.55
		c2.37-0.73,4.84,0.61,5.55,2.96c27.68,90.85,110.15,151.89,205.21,151.89c118.26,0,214.48-96.21,214.48-214.48
		c0-72.11-35.93-138.98-96.11-178.88c-2.04-1.35-2.6-4.11-1.24-6.16c1.36-2.05,4.11-2.6,6.16-1.24
		c62.67,41.55,100.09,111.19,100.09,186.29C472.62,377.05,372.42,477.25,249.25,477.25z"/>
	<path class="st13" d="M342.45,128.48L118.52,257.77c-9.77,5.64-13.12,18.13-7.47,27.88c5.62,9.76,18.08,13.09,27.84,7.5L121.82,303
		c-9.76,5.63-13.12,18.13-7.47,27.91c5.63,9.75,18.11,13.09,27.89,7.46c-9.78,5.63-13.13,18.12-7.48,27.89
		c5.63,9.75,18.11,13.09,27.89,7.44l12.53-7.24c-9.75,5.64-13.09,18.14-7.46,27.89c5.64,9.77,18.12,13.11,27.89,7.47l228.49-131.92
		L342.45,128.48z"/>
	<path class="st14" d="M342.45,128.48L139.61,244.04c-9.77,5.64-13.11,18.13-7.47,27.88c5.62,9.76,18.09,13.09,27.84,7.5
		l-17.07,9.86c-9.76,5.63-13.12,18.13-7.47,27.91c5.63,9.75,18.11,13.09,27.89,7.46c-9.78,5.63-13.13,18.12-7.47,27.89
		c5.63,9.75,18.1,13.09,27.88,7.44l12.53-7.24c-9.75,5.65-13.09,18.15-7.46,27.89c5.64,9.77,18.12,13.11,27.89,7.48l207.4-118.19
		L342.45,128.48z"/>
	<path class="st3" d="M185.44,409c-8.6,0-16.98-4.45-21.57-12.42c-3.12-5.41-3.97-11.51-2.86-17.21
		c-11.13,4.09-23.98-0.27-30.1-10.88c-3.33-5.75-4.21-12.46-2.49-18.88c0.39-1.44,0.9-2.83,1.52-4.15
		c-7.83-0.67-15.23-5.02-19.44-12.32c-3.32-5.75-4.21-12.46-2.49-18.88c1.72-6.42,5.83-11.79,11.59-15.11l0.62-0.35
		c-5.31-1.93-9.99-5.66-13.03-10.92c-3.32-5.74-4.21-12.43-2.49-18.86c1.72-6.41,5.83-11.77,11.59-15.09l223.93-129.29
		c1.02-0.6,2.22-0.76,3.38-0.45c1.14,0.31,2.11,1.05,2.7,2.07l81.65,141.43c0.59,1.02,0.75,2.24,0.44,3.37
		c-0.31,1.14-1.05,2.11-2.07,2.7L197.84,405.68C193.93,407.93,189.66,409,185.44,409z M175.18,362.02c1.53,0,3.03,0.8,3.85,2.22
		c1.23,2.13,0.5,4.84-1.62,6.07c-7.62,4.41-10.24,14.19-5.84,21.81c4.39,7.63,14.19,10.25,21.82,5.85l224.64-129.69l-77.21-133.72
		L120.75,261.63c-3.69,2.13-6.34,5.58-7.44,9.69c-1.1,4.12-0.54,8.42,1.6,12.11c4.39,7.61,14.15,10.22,21.78,5.86
		c2.13-1.21,4.84-0.48,6.07,1.64c1.22,2.13,0.49,4.85-1.63,6.07h-0.01l0,0.01l-17.06,9.84c-3.69,2.14-6.34,5.58-7.44,9.71
		c-1.11,4.12-0.54,8.43,1.6,12.13c4.4,7.61,14.18,10.23,21.81,5.83c2.12-1.21,4.85-0.5,6.08,1.64c0.4,0.7,0.59,1.46,0.59,2.21
		c0,1.54-0.8,3.03-2.23,3.86c-3.69,2.13-6.34,5.56-7.45,9.69c-1.1,4.12-0.54,8.43,1.6,12.12c4.39,7.61,14.18,10.22,21.81,5.82
		l12.52-7.23c0-0.01,0.01-0.01,0.01-0.01h0C173.66,362.21,174.42,362.02,175.18,362.02z"/>
	<path class="st3" d="M162.66,378.15c-1.54,0-3.03-0.79-3.85-2.22c-1.22-2.13-0.5-4.85,1.63-6.07l36.76-21.23
		c2.14-1.22,4.84-0.5,6.08,1.63c1.23,2.13,0.5,4.85-1.63,6.07l-36.76,21.23C164.18,377.96,163.41,378.15,162.66,378.15z"/>
	<path class="st3" d="M142.25,342.82c-1.54,0-3.03-0.8-3.86-2.23c-1.23-2.13-0.5-4.84,1.63-6.07l16.38-9.44
		c2.13-1.23,4.85-0.5,6.07,1.63c1.23,2.13,0.5,4.85-1.63,6.07l-16.38,9.44C143.76,342.63,143,342.82,142.25,342.82z"/>
	<path class="st15" d="M381.09,268.81L156.03,138.89L74.39,280.3l220.5,127.32c9.76,5.63,22.24,2.29,27.88-7.47
		c5.64-9.76,2.28-22.26-7.47-27.88l0.01-0.01l17.11,9.88c9.75,5.62,22.24,2.3,27.89-7.47c5.63-9.75,2.28-22.24-7.48-27.87
		c9.76,5.64,22.24,2.29,27.89-7.48c5.63-9.77,2.29-22.24-7.48-27.89l-12.55-7.24l0.01-0.01c9.77,5.64,22.25,2.3,27.89-7.46
		C394.2,286.94,390.85,274.45,381.09,268.81z"/>
	<path class="st16" d="M362.2,257.29L156.03,138.89L74.39,280.3l201.6,115.78c9.77,5.63,22.24,2.29,27.88-7.47
		s2.28-22.26-7.47-27.88l0.01-0.01l17.11,9.88c9.75,5.63,22.24,2.3,27.89-7.47c5.64-9.76,2.29-22.24-7.48-27.88
		c9.77,5.64,22.24,2.3,27.89-7.47c5.63-9.77,2.29-22.24-7.49-27.89l-12.55-7.25l0.01-0.01c9.77,5.65,22.25,2.3,27.89-7.46
		C375.31,275.42,371.96,262.92,362.2,257.29z"/>
	<path class="st3" d="M305.04,414.78c-4.21,0-8.48-1.08-12.38-3.33L72.17,284.15c-2.13-1.23-2.85-3.95-1.63-6.07l81.65-141.41
		c1.23-2.13,3.95-2.85,6.07-1.63l225.05,129.93c11.87,6.85,15.96,22.09,9.11,33.96c-3.04,5.26-7.78,9.15-13.47,11.08
		c9.1,7.61,11.72,20.9,5.61,31.51c-4.22,7.31-11.63,11.67-19.46,12.34c3.34,7.12,3.27,15.71-0.95,23.02
		c-6.85,11.86-22.09,15.95-33.96,9.09l-0.61-0.35c1.02,5.75,0,11.63-2.95,16.74C322.01,410.32,313.64,414.78,305.04,414.78z
		 M80.46,278.67l216.65,125.09c7.62,4.4,17.4,1.79,21.8-5.83c2.13-3.69,2.7-8,1.59-12.13c-1.1-4.12-3.74-7.55-7.43-9.67l0.01-0.01
		h-0.01c-2.12-1.23-2.85-3.95-1.63-6.08c1.23-2.13,3.95-2.86,6.07-1.63c0.21,0.12,0.42,0.25,0.62,0.37l16.49,9.51
		c7.63,4.4,17.41,1.77,21.81-5.85c4.4-7.61,1.77-17.4-5.85-21.8c-1.42-0.83-2.22-2.32-2.22-3.85c0-0.76,0.19-1.52,0.6-2.22
		c1.23-2.13,3.94-2.86,6.07-1.63c7.61,4.4,17.41,1.78,21.81-5.85c4.39-7.61,1.77-17.4-5.86-21.81l-12.55-7.24
		c-1.03-0.59-1.78-1.58-2.08-2.73c-0.3-1.16-0.12-2.39,0.49-3.41c1.25-2.09,3.94-2.79,6.05-1.58c3.69,2.14,7.99,2.71,12.12,1.61
		c4.12-1.1,7.56-3.74,9.7-7.43c4.39-7.63,1.77-17.41-5.86-21.81l-221.2-127.71L80.46,278.67z"/>
	<path class="st3" d="M352.81,351.22c-0.76,0-1.52-0.19-2.22-0.6L257.5,296.9c-2.13-1.23-2.85-3.95-1.63-6.08
		c1.23-2.13,3.94-2.86,6.07-1.63l93.09,53.74c2.13,1.23,2.85,3.95,1.63,6.08C355.84,350.43,354.34,351.22,352.81,351.22z"/>
	<path class="st3" d="M315.28,376.71c-0.76,0-1.52-0.19-2.22-0.6l-75.97-43.86c-1.42-0.82-2.22-2.32-2.22-3.85
		c0-0.76,0.19-1.52,0.59-2.23c1.23-2.13,3.95-2.85,6.08-1.62l75.97,43.86c1.42,0.82,2.22,2.32,2.22,3.86c0,0.75-0.19,1.51-0.6,2.22
		C318.31,375.91,316.82,376.71,315.28,376.71z"/>
	<path class="st3" d="M360.66,308.62c-0.76,0-1.52-0.19-2.22-0.6l-80.53-46.49c-2.12-1.23-2.85-3.95-1.63-6.07
		c1.23-2.13,3.94-2.86,6.08-1.63l80.53,46.49c2.12,1.23,2.85,3.95,1.63,6.08C363.69,307.82,362.2,308.62,360.66,308.62z"/>
	<path class="st14" d="M342.46,128.5c0,0-16.08,7.32-28.77,3.6l-32.99-8.85c-11.58-3.1-23.93-1.47-34.32,4.53l-47.27,27.29
		c-10.71,6.18-16.36,19.11-12.3,30.79c5.45,15.71,23.36,21.87,37.03,13.96l27.07-15.63c14.27-8.24,31.53-13.55,52.68-2.99
		l48.35-36.25L342.46,128.5z"/>
	<path class="st3" d="M211.06,207.71c-3.53,0-7.09-0.63-10.49-1.9c-8.42-3.13-14.96-9.88-17.95-18.49
		c-4.67-13.44,1.34-28.63,14.28-36.1l47.27-27.29c11.5-6.64,24.88-8.38,37.69-4.96l32.99,8.85c9.18,2.71,21.71-1.51,25.77-3.35
		c2.07-0.97,4.55-0.16,5.7,1.82l9.5,16.46c1.23,2.13,0.5,4.85-1.63,6.07c-2.14,1.23-4.85,0.5-6.08-1.62l-7.59-13.14
		c-5.94,2.11-17.79,5.36-28.08,2.33l-32.89-8.82c-10.51-2.81-21.5-1.36-30.93,4.08l-47.27,27.29c-9.26,5.34-13.6,16.06-10.33,25.48
		c2.15,6.2,6.64,10.85,12.65,13.07c5.93,2.21,12.47,1.66,17.96-1.51l27.08-15.62c12.56-7.25,32.13-15.47,56.89-3.11
		c2.2,1.09,3.09,3.76,1.99,5.96c-1.09,2.2-3.78,3.09-5.96,2c-20.69-10.33-36.77-3.89-48.47,2.86l-27.08,15.62
		C221.44,206.34,216.26,207.71,211.06,207.71z"/>
	<path class="st4" d="M162.13,128.33l-61.26-35.37c-43.36,40-70.54,97.28-70.54,160.92c0,5.18,0.24,10.3,0.6,15.39l37.37,21.57
		L162.13,128.33z"/>
	<path class="st5" d="M141.5,116.4l-40.63-23.44c-43.36,40-70.54,97.28-70.54,160.92c0,5.18,0.24,10.3,0.6,15.39l16.75,9.65
		L141.5,116.4z"/>
	<path class="st3" d="M68.3,295.3c-0.78,0-1.54-0.2-2.23-0.6L28.7,273.12c-1.28-0.74-2.11-2.06-2.21-3.54
		c-0.42-5.99-0.61-10.98-0.61-15.69c0-62.14,26.23-121.99,71.97-164.19c1.45-1.32,3.57-1.55,5.25-0.59l61.26,35.36
		c2.12,1.23,2.85,3.95,1.63,6.08L72.15,293.08c-0.59,1.02-1.56,1.76-2.7,2.07C69.07,295.25,68.68,295.3,68.3,295.3z M35.2,266.61
		l31.47,18.17l89.38-154.82L101.5,98.46c-42.44,40.38-66.73,96.84-66.73,155.42C34.77,257.76,34.91,261.85,35.2,266.61z"/>
	<path class="st3" d="M122.28,128.16c-4.09-2.36-9.32-0.95-11.68,3.14c-2.36,4.09-0.96,9.31,3.13,11.68
		c4.09,2.36,9.32,0.96,11.68-3.13C127.77,135.75,126.37,130.52,122.28,128.16z"/>
	<path class="st8" d="M430.19,280.45l37.85-21.85c0.03-1.57,0.12-3.14,0.12-4.72c0-67.06-30.18-127.04-77.67-167.2l-54.13,31.25
		L430.19,280.45z"/>
	<path class="st9" d="M449.36,269.12l18.69-10.52c0.03-1.57,0.12-3.14,0.12-4.72c0-67.06-30.18-127.04-77.67-167.2l-34.97,19.93
		L449.36,269.12z"/>
	<path class="st3" d="M430.2,284.9c-1.54,0-3.03-0.79-3.85-2.22l-93.83-162.52c-1.23-2.13-0.5-4.85,1.63-6.07l54.13-31.25
		c1.64-0.93,3.66-0.76,5.1,0.46c50.36,42.59,79.24,104.77,79.24,170.59c0,1.04-0.03,2.07-0.07,3.1l-0.05,1.71
		c-0.04,1.55-0.88,2.98-2.22,3.76l-37.85,21.85C431.72,284.71,430.95,284.9,430.2,284.9z M342.44,119.57l89.38,154.82l31.86-18.4
		c0.02-0.7,0.04-1.4,0.04-2.11c0-62.17-26.83-120.95-73.73-161.77L342.44,119.57z"/>
	<path class="st3" d="M450.04,230.34c-2.36-4.09-7.59-5.49-11.68-3.13c-4.09,2.37-5.49,7.59-3.13,11.68
		c2.36,4.09,7.59,5.49,11.68,3.14C450.99,239.66,452.4,234.43,450.04,230.34z"/>
	<path class="st2" d="M78.22,76.01c0,7.57-6.12,13.69-13.68,13.69c-7.56,0-13.68-6.12-13.68-13.69c0-7.55,6.13-13.67,13.68-13.67
		C72.09,62.33,78.22,68.46,78.22,76.01z"/>
	<path class="st3" d="M64.53,94.14c-10,0-18.13-8.13-18.13-18.13c0-9.99,8.13-18.13,18.13-18.13s18.13,8.13,18.13,18.13
		C82.66,86.02,74.53,94.14,64.53,94.14z M64.53,66.78c-5.09,0-9.24,4.14-9.24,9.23c0,5.1,4.14,9.24,9.24,9.24
		c5.1,0,9.24-4.14,9.24-9.24C73.77,70.92,69.63,66.78,64.53,66.78z"/>
	<path class="st2" d="M420.28,48.65c0,7.55-6.13,13.68-13.68,13.68s-13.68-6.13-13.68-13.68c0-7.55,6.13-13.68,13.68-13.68
		S420.28,41.09,420.28,48.65z"/>
	<path class="st3" d="M406.59,66.78c-10,0-18.13-8.13-18.13-18.13c0-9.99,8.13-18.13,18.13-18.13c10,0,18.13,8.13,18.13,18.13
		C424.72,58.65,416.59,66.78,406.59,66.78z M406.59,39.41c-5.1,0-9.24,4.14-9.24,9.24c0,5.1,4.14,9.24,9.24,9.24
		c5.1,0,9.24-4.14,9.24-9.24C415.83,43.55,411.69,39.41,406.59,39.41z"/>
	<path class="st2" d="M461.33,96.54c0,7.55-6.12,13.68-13.68,13.68c-7.56,0-13.68-6.13-13.68-13.68c0-7.55,6.13-13.69,13.68-13.69
		C455.2,82.85,461.33,88.99,461.33,96.54z"/>
	<path class="st3" d="M447.64,114.67c-10,0-18.13-8.14-18.13-18.13s8.13-18.13,18.13-18.13c10,0,18.13,8.14,18.13,18.13
		S457.64,114.67,447.64,114.67z M447.64,87.3c-5.09,0-9.24,4.14-9.24,9.24c0,5.1,4.14,9.24,9.24,9.24c5.09,0,9.24-4.14,9.24-9.24
		C456.88,91.44,452.74,87.3,447.64,87.3z"/>
	<path class="st2" d="M64.53,411.22c0,7.56-6.13,13.69-13.68,13.69c-7.56,0-13.68-6.13-13.68-13.69c0-7.55,6.12-13.67,13.68-13.67
		C58.41,397.55,64.53,403.67,64.53,411.22z"/>
	<path class="st3" d="M50.85,429.36c-10,0-18.13-8.13-18.13-18.13c0-9.99,8.13-18.12,18.13-18.12c10,0,18.13,8.13,18.13,18.12
		C68.98,421.23,60.85,429.36,50.85,429.36z M50.85,402c-5.1,0-9.24,4.14-9.24,9.23c0,5.1,4.14,9.24,9.24,9.24
		c5.09,0,9.24-4.14,9.24-9.24C60.09,406.13,55.94,402,50.85,402z"/>
	<path class="st2" d="M112.43,459.12c0,7.56-6.12,13.69-13.68,13.69c-7.56,0-13.68-6.13-13.68-13.69c0-7.55,6.12-13.67,13.68-13.67
		C106.3,445.44,112.43,451.57,112.43,459.12z"/>
	<path class="st3" d="M98.74,477.25c-10,0-18.13-8.13-18.13-18.13c0-10,8.13-18.12,18.13-18.12c10,0,18.13,8.13,18.13,18.12
		C116.87,469.13,108.74,477.25,98.74,477.25z M98.74,449.89c-5.09,0-9.24,4.14-9.24,9.24c0,5.09,4.14,9.24,9.24,9.24
		c5.09,0,9.24-4.14,9.24-9.24C107.98,454.03,103.84,449.89,98.74,449.89z"/>
	<path class="st2" d="M454.48,424.91c0,7.55-6.13,13.69-13.68,13.69s-13.68-6.13-13.68-13.69c0-7.55,6.13-13.68,13.68-13.68
		S454.48,417.36,454.48,424.91z"/>
	<path class="st3" d="M440.8,443.04c-10,0-18.13-8.13-18.13-18.13c0-10,8.13-18.13,18.13-18.13c10,0,18.13,8.13,18.13,18.13
		C458.93,434.91,450.8,443.04,440.8,443.04z M440.8,415.67c-5.09,0-9.24,4.14-9.24,9.24c0,5.09,4.14,9.24,9.24,9.24
		c5.1,0,9.24-4.14,9.24-9.24C450.04,419.81,445.9,415.67,440.8,415.67z"/>
</g>
</svg>
