{"accessors":[{"bufferView":0,"componentType":5125,"count":11601,"max":[4552.0],"min":[0.0],"type":"SCALAR"},{"bufferView":1,"componentType":5126,"count":4553,"max":[30.485719680786134,7.338305473327637,-12.514659881591797],"min":[22.736183166503908,-0.8101195096969605,-19.515222549438478],"type":"VEC3"},{"bufferView":2,"componentType":5126,"count":4553,"max":[0.9999996423721314,1.0,0.9999998807907105],"min":[-0.9999999403953552,-0.8847420811653137,-0.9999998807907105],"type":"VEC3"},{"bufferView":3,"componentType":5126,"count":4553,"max":[1.0,1.0],"min":[0.0,0.0],"type":"VEC2"},{"bufferView":4,"componentType":5125,"count":11604,"max":[4950.0],"min":[0.0],"type":"SCALAR"},{"bufferView":5,"componentType":5126,"count":4951,"max":[40.56919479370117,7.056967735290527,0.03417433425784111],"min":[22.75197410583496,-0.7884169220924377,-21.403804779052736],"type":"VEC3"},{"bufferView":6,"componentType":5126,"count":4951,"max":[1.0,1.0,1.0],"min":[-1.0,-1.0,-1.0],"type":"VEC3"},{"bufferView":7,"componentType":5126,"count":4951,"max":[1.0,1.0],"min":[0.0,0.0],"type":"VEC2"},{"bufferView":8,"componentType":5125,"count":3933,"max":[1467.0],"min":[0.0],"type":"SCALAR"},{"bufferView":9,"componentType":5126,"count":1468,"max":[45.48918533325195,10.489822387695313,0.03417433425784111],"min":[9.4150972366333,-0.3937007784843445,-37.028167724609378],"type":"VEC3"},{"bufferView":10,"componentType":5126,"count":1468,"max":[1.0,1.0,1.0],"min":[-1.0,-1.0,-1.0],"type":"VEC3"},{"bufferView":11,"componentType":5126,"count":1468,"max":[1.0,1.0],"min":[-1.1102230246251566e-16,0.0],"type":"VEC2"},{"bufferView":12,"componentType":5125,"count":7035,"max":[2181.0],"min":[0.0],"type":"SCALAR"},{"bufferView":13,"componentType":5126,"count":2182,"max":[45.46162796020508,11.375328063964844,0.03417433425784111],"min":[0.8539864420890808,-0.8101195096969605,-37.028167724609378],"type":"VEC3"},{"bufferView":14,"componentType":5126,"count":2182,"max":[0.9999996423721314,1.0,0.9999998807907105],"min":[-0.9999999403953552,-1.0,-0.9999998807907105],"type":"VEC3"},{"bufferView":15,"componentType":5126,"count":2182,"max":[1.0,1.0],"min":[1.1102230246251566e-16,0.0],"type":"VEC2"},{"bufferView":16,"componentType":5125,"count":2208,"max":[662.0],"min":[0.0],"type":"SCALAR"},{"bufferView":17,"componentType":5126,"count":663,"max":[66.65563201904297,5.490813732147217,-0.15706582367420197],"min":[1.243439793586731,-0.3937007784843445,-36.53755187988281],"type":"VEC3"},{"bufferView":18,"componentType":5126,"count":663,"max":[0.003921627998352051,-1.0,0.003921627998352051],"min":[0.003921627998352051,-1.0,0.003921627998352051],"type":"VEC3"},{"bufferView":19,"componentType":5126,"count":663,"max":[1.0,1.0],"min":[1.1102230246251566e-16,0.0],"type":"VEC2"},{"bufferView":20,"componentType":5125,"count":102,"max":[39.0],"min":[0.0],"type":"SCALAR"},{"bufferView":21,"componentType":5126,"count":40,"max":[40.431400299072269,5.490813732147217,-0.15706582367420197],"min":[37.785728454589847,-0.3937007784843445,-3.16965913772583],"type":"VEC3"},{"bufferView":22,"componentType":5126,"count":40,"max":[0.9999996423721314,-0.00038377841701731086,0.9999998807907105],"min":[-0.9999999403953552,-0.00038377841701731086,8.74227694680485e-8],"type":"VEC3"},{"bufferView":23,"componentType":5126,"count":40,"max":[1.0,1.0],"min":[0.0,0.0],"type":"VEC2"},{"bufferView":24,"componentType":5125,"count":7752,"max":[2826.0],"min":[0.0],"type":"SCALAR"},{"bufferView":25,"componentType":5126,"count":2827,"max":[66.9681625366211,11.375328063964844,0.03417433425784111],"min":[0.8539864420890808,-0.3937007784843445,-37.028167724609378],"type":"VEC3"},{"bufferView":26,"componentType":5126,"count":2827,"max":[1.0,1.0,1.0],"min":[-1.0,-1.0,-1.0],"type":"VEC3"},{"bufferView":27,"componentType":5126,"count":2827,"max":[1.0,1.0],"min":[0.0,0.0],"type":"VEC2"},{"bufferView":28,"componentType":5125,"count":102,"max":[39.0],"min":[0.0],"type":"SCALAR"},{"bufferView":29,"componentType":5126,"count":40,"max":[25.82509994506836,5.490813732147217,-0.15706582367420197],"min":[23.157806396484376,-0.3937007784843445,-3.16965913772583],"type":"VEC3"},{"bufferView":30,"componentType":5126,"count":40,"max":[0.9999996423721314,-0.00038377841701731086,0.9999998807907105],"min":[-0.9999999403953552,-0.00038377841701731086,8.74227694680485e-8],"type":"VEC3"},{"bufferView":31,"componentType":5126,"count":40,"max":[1.0,1.0],"min":[0.0,0.0],"type":"VEC2"},{"bufferView":32,"componentType":5125,"count":102,"max":[39.0],"min":[0.0],"type":"SCALAR"},{"bufferView":33,"componentType":5126,"count":40,"max":[28.746360778808595,5.490813732147217,-0.15706582367420197],"min":[26.100690841674806,-0.3937007784843445,-3.16965913772583],"type":"VEC3"},{"bufferView":34,"componentType":5126,"count":40,"max":[0.9999996423721314,-0.00038377841701731086,0.9999998807907105],"min":[-0.9999999403953552,-0.00038377841701731086,8.74227694680485e-8],"type":"VEC3"},{"bufferView":35,"componentType":5126,"count":40,"max":[1.0,1.0],"min":[0.0,0.0],"type":"VEC2"},{"bufferView":36,"componentType":5125,"count":102,"max":[39.0],"min":[0.0],"type":"SCALAR"},{"bufferView":37,"componentType":5126,"count":40,"max":[31.667619705200197,5.490813732147217,-0.15706582367420197],"min":[29.021949768066408,-0.3937007784843445,-3.16965913772583],"type":"VEC3"},{"bufferView":38,"componentType":5126,"count":40,"max":[0.9999996423721314,-0.00038377841701731086,0.9999998807907105],"min":[-0.9999999403953552,-0.00038377841701731086,8.74227694680485e-8],"type":"VEC3"},{"bufferView":39,"componentType":5126,"count":40,"max":[1.0,1.0],"min":[0.0,0.0],"type":"VEC2"},{"bufferView":40,"componentType":5125,"count":102,"max":[39.0],"min":[0.0],"type":"SCALAR"},{"bufferView":41,"componentType":5126,"count":40,"max":[37.51013946533203,5.490813732147217,-0.15706582367420197],"min":[31.94321060180664,-0.3937007784843445,-3.16965913772583],"type":"VEC3"},{"bufferView":42,"componentType":5126,"count":40,"max":[0.9999996423721314,-0.00038377841701731086,0.9999998807907105],"min":[-0.9999999403953552,-0.00038377841701731086,8.74227694680485e-8],"type":"VEC3"},{"bufferView":43,"componentType":5126,"count":40,"max":[1.0,1.0],"min":[0.0,0.0],"type":"VEC2"},{"bufferView":44,"componentType":5125,"count":2496,"max":[780.0],"min":[0.0],"type":"SCALAR"},{"bufferView":45,"componentType":5126,"count":781,"max":[40.431400299072269,11.375328063964844,0.03417433425784111],"min":[0.8539864420890808,-0.3937007784843445,-36.43968200683594],"type":"VEC3"},{"bufferView":46,"componentType":5126,"count":781,"max":[1.0,1.0,1.0],"min":[-1.0,-1.0,-1.0],"type":"VEC3"},{"bufferView":47,"componentType":5126,"count":781,"max":[1.0,1.0],"min":[0.0,0.0],"type":"VEC2"},{"bufferView":48,"componentType":5125,"count":84,"max":[23.0],"min":[0.0],"type":"SCALAR"},{"bufferView":49,"componentType":5126,"count":24,"max":[45.18603515625,-0.23884513974189759,-0.22547760605812074],"min":[40.56919479370117,-0.23884513974189759,-7.076904296875],"type":"VEC3"},{"bufferView":50,"componentType":5126,"count":24,"max":[-8.742274815176643e-8,-1.0,-6.70943023362014e-11],"min":[-8.742274815176643e-8,-1.0,-6.70943023362014e-11],"type":"VEC3"},{"bufferView":51,"componentType":5126,"count":24,"max":[1.0,1.0],"min":[-1.1102230246251566e-16,0.0],"type":"VEC2"},{"bufferView":52,"componentType":5125,"count":255,"max":[88.0],"min":[0.0],"type":"SCALAR"},{"bufferView":53,"componentType":5126,"count":89,"max":[45.18603515625,1.116141676902771,-26.894323348999025],"min":[25.968830108642579,0.3418635129928589,-32.59322738647461],"type":"VEC3"},{"bufferView":54,"componentType":5126,"count":89,"max":[0.003921627998352051,-1.0,0.003921627998352051],"min":[0.003921627998352051,-1.0,0.003921627998352051],"type":"VEC3"},{"bufferView":55,"componentType":5126,"count":89,"max":[1.0,1.0],"min":[2.220446049250313e-16,0.0],"type":"VEC2"},{"bufferView":56,"componentType":5125,"count":12,"max":[6.0],"min":[0.0],"type":"SCALAR"},{"bufferView":57,"componentType":5126,"count":7,"max":[43.02080535888672,5.3722076416015629,-3.3267452716827394],"min":[40.56919479370117,5.3722076416015629,-7.076904296875],"type":"VEC3"},{"bufferView":58,"componentType":5126,"count":7,"max":[0.0,1.0,0.0],"min":[0.0,1.0,0.0],"type":"VEC3"},{"bufferView":59,"componentType":5126,"count":7,"max":[1.0,1.0],"min":[0.0,0.0],"type":"VEC2"},{"bufferView":60,"componentType":5125,"count":180,"max":[67.0],"min":[0.0],"type":"SCALAR"},{"bufferView":61,"componentType":5126,"count":68,"max":[21.892620086669923,10.325780868530274,-4.37396764755249],"min":[12.943624496459961,5.654855728149414,-26.730281829833986],"type":"VEC3"},{"bufferView":62,"componentType":5126,"count":68,"max":[1.0,0.003921627998352051,1.0],"min":[0.003921627998352051,0.003921627998352051,0.003921627998352051],"type":"VEC3"},{"bufferView":63,"componentType":5126,"count":68,"max":[1.0,1.0],"min":[0.0,0.0],"type":"VEC2"},{"bufferView":64,"componentType":5125,"count":36,"max":[23.0],"min":[0.0],"type":"SCALAR"},{"bufferView":65,"componentType":5126,"count":24,"max":[39.10856628417969,5.490813732147217,-3.16965913772583],"min":[37.785728454589847,-0.3937007784843445,-3.825827121734619],"type":"VEC3"},{"bufferView":66,"componentType":5126,"count":24,"max":[0.9999996423721314,1.0,0.9999998807907105],"min":[-0.9999999403953552,-1.0,-0.9999998807907105],"type":"VEC3"},{"bufferView":67,"componentType":5126,"count":24,"max":[1.0,1.0],"min":[0.0,0.0],"type":"VEC2"},{"bufferView":68,"componentType":5125,"count":36,"max":[23.0],"min":[0.0],"type":"SCALAR"},{"bufferView":69,"componentType":5126,"count":24,"max":[41.22536087036133,5.490813732147217,-0.22547760605812074],"min":[40.56919479370117,-0.23884513974189759,-3.16965913772583],"type":"VEC3"},{"bufferView":70,"componentType":5126,"count":24,"max":[0.9999996423721314,1.0,0.9999998807907105],"min":[-0.9999999403953552,-1.0,-0.9999998807907105],"type":"VEC3"},{"bufferView":71,"componentType":5126,"count":24,"max":[1.0,1.0],"min":[0.0,0.0],"type":"VEC2"},{"bufferView":72,"componentType":5125,"count":36,"max":[23.0],"min":[0.0],"type":"SCALAR"},{"bufferView":73,"componentType":5126,"count":24,"max":[22.333255767822267,11.375328063964844,-0.582353949546814],"min":[14.58851432800293,5.490813732147217,-1.238521933555603],"type":"VEC3"},{"bufferView":74,"componentType":5126,"count":24,"max":[0.9999996423721314,1.0,0.9999998807907105],"min":[-0.9999999403953552,-1.0,-0.9999998807907105],"type":"VEC3"},{"bufferView":75,"componentType":5126,"count":24,"max":[1.0,1.0],"min":[-2.220446049250313e-16,0.0],"type":"VEC2"}],"asset":{"generator":"SimLab GLTF","version":"2.0"},"bufferViews":[{"buffer":0,"byteLength":46404,"target":34963},{"buffer":0,"byteLength":54636,"byteOffset":46404,"byteStride":12,"target":34962},{"buffer":0,"byteLength":54636,"byteOffset":101040,"byteStride":12,"target":34962},{"buffer":0,"byteLength":36424,"byteOffset":155676,"byteStride":8,"target":34962},{"buffer":0,"byteLength":46416,"byteOffset":192100,"target":34963},{"buffer":0,"byteLength":59412,"byteOffset":238516,"byteStride":12,"target":34962},{"buffer":0,"byteLength":59412,"byteOffset":297928,"byteStride":12,"target":34962},{"buffer":0,"byteLength":39608,"byteOffset":357340,"byteStride":8,"target":34962},{"buffer":0,"byteLength":15732,"byteOffset":396948,"target":34963},{"buffer":0,"byteLength":17616,"byteOffset":412680,"byteStride":12,"target":34962},{"buffer":0,"byteLength":17616,"byteOffset":430296,"byteStride":12,"target":34962},{"buffer":0,"byteLength":11744,"byteOffset":447912,"byteStride":8,"target":34962},{"buffer":0,"byteLength":28140,"byteOffset":459656,"target":34963},{"buffer":0,"byteLength":26184,"byteOffset":487796,"byteStride":12,"target":34962},{"buffer":0,"byteLength":26184,"byteOffset":513980,"byteStride":12,"target":34962},{"buffer":0,"byteLength":17456,"byteOffset":540164,"byteStride":8,"target":34962},{"buffer":0,"byteLength":8832,"byteOffset":557620,"target":34963},{"buffer":0,"byteLength":7956,"byteOffset":566452,"byteStride":12,"target":34962},{"buffer":0,"byteLength":7956,"byteOffset":574408,"byteStride":12,"target":34962},{"buffer":0,"byteLength":5304,"byteOffset":582364,"byteStride":8,"target":34962},{"buffer":0,"byteLength":408,"byteOffset":587668,"target":34963},{"buffer":0,"byteLength":480,"byteOffset":588076,"byteStride":12,"target":34962},{"buffer":0,"byteLength":480,"byteOffset":588556,"byteStride":12,"target":34962},{"buffer":0,"byteLength":320,"byteOffset":589036,"byteStride":8,"target":34962},{"buffer":0,"byteLength":31008,"byteOffset":589356,"target":34963},{"buffer":0,"byteLength":33924,"byteOffset":620364,"byteStride":12,"target":34962},{"buffer":0,"byteLength":33924,"byteOffset":654288,"byteStride":12,"target":34962},{"buffer":0,"byteLength":22616,"byteOffset":688212,"byteStride":8,"target":34962},{"buffer":0,"byteLength":408,"byteOffset":710828,"target":34963},{"buffer":0,"byteLength":480,"byteOffset":711236,"byteStride":12,"target":34962},{"buffer":0,"byteLength":480,"byteOffset":711716,"byteStride":12,"target":34962},{"buffer":0,"byteLength":320,"byteOffset":712196,"byteStride":8,"target":34962},{"buffer":0,"byteLength":408,"byteOffset":712516,"target":34963},{"buffer":0,"byteLength":480,"byteOffset":712924,"byteStride":12,"target":34962},{"buffer":0,"byteLength":480,"byteOffset":713404,"byteStride":12,"target":34962},{"buffer":0,"byteLength":320,"byteOffset":713884,"byteStride":8,"target":34962},{"buffer":0,"byteLength":408,"byteOffset":714204,"target":34963},{"buffer":0,"byteLength":480,"byteOffset":714612,"byteStride":12,"target":34962},{"buffer":0,"byteLength":480,"byteOffset":715092,"byteStride":12,"target":34962},{"buffer":0,"byteLength":320,"byteOffset":715572,"byteStride":8,"target":34962},{"buffer":0,"byteLength":408,"byteOffset":715892,"target":34963},{"buffer":0,"byteLength":480,"byteOffset":716300,"byteStride":12,"target":34962},{"buffer":0,"byteLength":480,"byteOffset":716780,"byteStride":12,"target":34962},{"buffer":0,"byteLength":320,"byteOffset":717260,"byteStride":8,"target":34962},{"buffer":0,"byteLength":9984,"byteOffset":717580,"target":34963},{"buffer":0,"byteLength":9372,"byteOffset":727564,"byteStride":12,"target":34962},{"buffer":0,"byteLength":9372,"byteOffset":736936,"byteStride":12,"target":34962},{"buffer":0,"byteLength":6248,"byteOffset":746308,"byteStride":8,"target":34962},{"buffer":0,"byteLength":336,"byteOffset":752556,"target":34963},{"buffer":0,"byteLength":288,"byteOffset":752892,"byteStride":12,"target":34962},{"buffer":0,"byteLength":288,"byteOffset":753180,"byteStride":12,"target":34962},{"buffer":0,"byteLength":192,"byteOffset":753468,"byteStride":8,"target":34962},{"buffer":0,"byteLength":1020,"byteOffset":753660,"target":34963},{"buffer":0,"byteLength":1068,"byteOffset":754680,"byteStride":12,"target":34962},{"buffer":0,"byteLength":1068,"byteOffset":755748,"byteStride":12,"target":34962},{"buffer":0,"byteLength":712,"byteOffset":756816,"byteStride":8,"target":34962},{"buffer":0,"byteLength":48,"byteOffset":757528,"target":34963},{"buffer":0,"byteLength":84,"byteOffset":757576,"byteStride":12,"target":34962},{"buffer":0,"byteLength":84,"byteOffset":757660,"byteStride":12,"target":34962},{"buffer":0,"byteLength":56,"byteOffset":757744,"byteStride":8,"target":34962},{"buffer":0,"byteLength":720,"byteOffset":757800,"target":34963},{"buffer":0,"byteLength":816,"byteOffset":758520,"byteStride":12,"target":34962},{"buffer":0,"byteLength":816,"byteOffset":759336,"byteStride":12,"target":34962},{"buffer":0,"byteLength":544,"byteOffset":760152,"byteStride":8,"target":34962},{"buffer":0,"byteLength":144,"byteOffset":760696,"target":34963},{"buffer":0,"byteLength":288,"byteOffset":760840,"byteStride":12,"target":34962},{"buffer":0,"byteLength":288,"byteOffset":761128,"byteStride":12,"target":34962},{"buffer":0,"byteLength":192,"byteOffset":761416,"byteStride":8,"target":34962},{"buffer":0,"byteLength":144,"byteOffset":761608,"target":34963},{"buffer":0,"byteLength":288,"byteOffset":761752,"byteStride":12,"target":34962},{"buffer":0,"byteLength":288,"byteOffset":762040,"byteStride":12,"target":34962},{"buffer":0,"byteLength":192,"byteOffset":762328,"byteStride":8,"target":34962},{"buffer":0,"byteLength":144,"byteOffset":762520,"target":34963},{"buffer":0,"byteLength":288,"byteOffset":762664,"byteStride":12,"target":34962},{"buffer":0,"byteLength":288,"byteOffset":762952,"byteStride":12,"target":34962},{"buffer":0,"byteLength":192,"byteOffset":763240,"byteStride":8,"target":34962}],"buffers":[{"byteLength":763432,"uri":"1.bin"}],"materials":[{"name":"R58,G58,B58","alphaMode":"MASK","doubleSided":true,"pbrMetallicRoughness":{"baseColorFactor":[0.22745099663734437,0.22745099663734437,0.22745099663734437,1.0],"metallicFactor":0.0}},{"name":"R225,G225,B200","alphaMode":"MASK","doubleSided":true,"pbrMetallicRoughness":{"baseColorFactor":[0.8823530077934265,0.8823530077934265,0.7843137979507446,1.0],"metallicFactor":0.0}},{"name":"R132,G136,B139","alphaMode":"MASK","doubleSided":true,"pbrMetallicRoughness":{"baseColorFactor":[0.5176470875740051,0.5333333611488342,0.545098066329956,1.0],"metallicFactor":0.0}},{"name":"R127,G0,B255","alphaMode":"MASK","doubleSided":true,"pbrMetallicRoughness":{"baseColorFactor":[0.49803924560546877,0.0,1.0,1.0],"metallicFactor":0.0}},{"name":"R255,G255,B255","alphaMode":"MASK","doubleSided":true,"pbrMetallicRoughness":{"metallicFactor":0.0}},{"name":"R204,G204,B255","alphaMode":"MASK","doubleSided":true,"pbrMetallicRoughness":{"baseColorFactor":[0.8000000715255737,0.8000000715255737,1.0,1.0],"metallicFactor":0.0}},{"name":"R153,G255,B153","alphaMode":"MASK","doubleSided":true,"pbrMetallicRoughness":{"baseColorFactor":[0.6000000238418579,1.0,0.6000000238418579,1.0],"metallicFactor":0.0}},{"name":"R255,G178,B153","alphaMode":"MASK","doubleSided":true,"pbrMetallicRoughness":{"baseColorFactor":[1.0,0.6980392336845398,0.6000000238418579,1.0],"metallicFactor":0.0}},{"name":"R255,G255,B153","alphaMode":"MASK","doubleSided":true,"pbrMetallicRoughness":{"baseColorFactor":[1.0,1.0,0.6000000238418579,1.0],"metallicFactor":0.0}},{"name":"R125,G138,B183","alphaMode":"MASK","doubleSided":true,"pbrMetallicRoughness":{"baseColorFactor":[0.4901961088180542,0.5411764979362488,0.7176470756530762,1.0],"metallicFactor":0.0}},{"name":"R207,G207,B207","alphaMode":"MASK","doubleSided":true,"pbrMetallicRoughness":{"baseColorFactor":[0.8117647767066956,0.8117647767066956,0.8117647767066956,1.0],"metallicFactor":0.0}},{"name":"R106,G157,B55","alphaMode":"MASK","doubleSided":true,"pbrMetallicRoughness":{"baseColorFactor":[0.41568630933761599,0.615686297416687,0.21568629145622254,1.0],"metallicFactor":0.0}},{"name":"R193,G193,B193","alphaMode":"MASK","doubleSided":true,"pbrMetallicRoughness":{"baseColorFactor":[0.7568628191947937,0.7568628191947937,0.7568628191947937,1.0],"metallicFactor":0.0}},{"name":"R100,G149,B237","alphaMode":"MASK","doubleSided":true,"pbrMetallicRoughness":{"baseColorFactor":[0.3921568989753723,0.5843137502670288,0.9294118285179138,1.0],"metallicFactor":0.0}},{"name":"R127,G127,B127","alphaMode":"MASK","doubleSided":true,"pbrMetallicRoughness":{"baseColorFactor":[0.49803924560546877,0.49803924560546877,0.49803924560546877,1.0],"metallicFactor":0.0}}],"meshes":[{"primitives":[{"attributes":{"NORMAL":2,"POSITION":1,"TEXCOORD_0":3},"indices":0,"material":0,"mode":4}]},{"primitives":[{"attributes":{"NORMAL":6,"POSITION":5,"TEXCOORD_0":7},"indices":4,"material":0,"mode":4}]},{"primitives":[{"attributes":{"NORMAL":10,"POSITION":9,"TEXCOORD_0":11},"indices":8,"material":0,"mode":4}]},{"primitives":[{"attributes":{"NORMAL":14,"POSITION":13,"TEXCOORD_0":15},"indices":12,"material":1,"mode":4}]},{"primitives":[{"attributes":{"NORMAL":18,"POSITION":17,"TEXCOORD_0":19},"indices":16,"material":2,"mode":4}]},{"primitives":[{"attributes":{"NORMAL":22,"POSITION":21,"TEXCOORD_0":23},"indices":20,"material":3,"mode":4}]},{"primitives":[{"attributes":{"NORMAL":26,"POSITION":25,"TEXCOORD_0":27},"indices":24,"material":4,"mode":4}]},{"primitives":[{"attributes":{"NORMAL":30,"POSITION":29,"TEXCOORD_0":31},"indices":28,"material":5,"mode":4}]},{"primitives":[{"attributes":{"NORMAL":34,"POSITION":33,"TEXCOORD_0":35},"indices":32,"material":6,"mode":4}]},{"primitives":[{"attributes":{"NORMAL":38,"POSITION":37,"TEXCOORD_0":39},"indices":36,"material":7,"mode":4}]},{"primitives":[{"attributes":{"NORMAL":42,"POSITION":41,"TEXCOORD_0":43},"indices":40,"material":8,"mode":4}]},{"primitives":[{"attributes":{"NORMAL":46,"POSITION":45,"TEXCOORD_0":47},"indices":44,"material":9,"mode":4}]},{"primitives":[{"attributes":{"NORMAL":50,"POSITION":49,"TEXCOORD_0":51},"indices":48,"material":10,"mode":4}]},{"primitives":[{"attributes":{"NORMAL":54,"POSITION":53,"TEXCOORD_0":55},"indices":52,"material":11,"mode":4}]},{"primitives":[{"attributes":{"NORMAL":58,"POSITION":57,"TEXCOORD_0":59},"indices":56,"material":12,"mode":4}]},{"primitives":[{"attributes":{"NORMAL":62,"POSITION":61,"TEXCOORD_0":63},"indices":60,"material":13,"mode":4}]},{"primitives":[{"attributes":{"NORMAL":66,"POSITION":65,"TEXCOORD_0":67},"indices":64,"material":14,"mode":4}]},{"primitives":[{"attributes":{"NORMAL":70,"POSITION":69,"TEXCOORD_0":71},"indices":68,"material":14,"mode":4}]},{"primitives":[{"attributes":{"NORMAL":74,"POSITION":73,"TEXCOORD_0":75},"indices":72,"material":14,"mode":4}]}],"nodes":[{"children":[1,2],"matrix":[1.0,0.0,0.0,0.0,0.0,4.4896593387466768e-11,-1.0,0.0,0.0,1.0,4.4896593387466768e-11,0.0,0.0,0.0,0.0,1.0]},{"name":"Camera-13","rotation":[-0.7071067690849304,6.259484971883736e-18,0.0,-0.7071067690849304],"translation":[10.205947875976563,-78.98967742919922,1.3909416198730469]},{"name":"Assembly-46","children":[3],"rotation":[0.0,0.0,0.0,-1.0],"scale":[0.0010000000474974514,0.0010000000474974514,0.0010000000474974514]},{"children":[4,6,61],"rotation":[-0.7071067690849304,0.0,0.0,-0.7071067690849304],"scale":[304.79998779296877,304.79998779296877,304.79998779296877]},{"name":"Levels (1)","children":[5],"rotation":[0.0,0.0,0.0,-1.0]},{"rotation":[0.0,0.0,0.0,-1.0]},{"name":"Mass (1)","children":[7],"rotation":[0.0,0.0,0.0,-1.0]},{"name":"revit 1 [2517]","children":[8,60],"rotation":[0.0,0.0,0.0,-1.0]},{"name":"SubPart 1","children":[9,19,22,25,28,31,34,37,40,43,46,49,52,55,58,59],"rotation":[0.0,0.0,0.0,-1.0]},{"children":[10,13,16],"rotation":[0.0,0.0,0.0,-1.0]},{"name":"3DGeom-3","children":[12],"rotation":[0.0,0.0,0.0,-1.0]},{"mesh":0},{"children":[11]},{"name":"3DGeom-4","children":[15],"rotation":[0.0,0.0,0.0,-1.0]},{"mesh":1},{"children":[14]},{"name":"3DGeom-5","children":[18],"rotation":[0.0,0.0,0.0,-1.0]},{"mesh":2},{"children":[17]},{"children":[21],"rotation":[0.0,0.0,0.0,-1.0]},{"mesh":3},{"children":[20]},{"children":[24],"rotation":[0.0,0.0,0.0,-1.0]},{"mesh":4},{"children":[23]},{"children":[27],"rotation":[0.0,0.0,0.0,-1.0]},{"mesh":5},{"children":[26]},{"children":[30],"rotation":[0.0,0.0,0.0,-1.0]},{"mesh":6},{"children":[29]},{"children":[33],"rotation":[0.0,0.0,0.0,-1.0]},{"mesh":7},{"children":[32]},{"children":[36],"rotation":[0.0,0.0,0.0,-1.0]},{"mesh":8},{"children":[35]},{"children":[39],"rotation":[0.0,0.0,0.0,-1.0]},{"mesh":9},{"children":[38]},{"children":[42],"rotation":[0.0,0.0,0.0,-1.0]},{"mesh":10},{"children":[41]},{"children":[45],"rotation":[0.0,0.0,0.0,-1.0]},{"mesh":11},{"children":[44]},{"children":[48],"rotation":[0.0,0.0,0.0,-1.0]},{"mesh":12},{"children":[47]},{"children":[51],"rotation":[0.0,0.0,0.0,-1.0]},{"mesh":13},{"children":[50]},{"children":[54],"rotation":[0.0,0.0,0.0,-1.0]},{"mesh":14},{"children":[53]},{"children":[57],"rotation":[0.0,0.0,0.0,-1.0]},{"mesh":15},{"children":[56]},{"rotation":[0.0,0.0,0.0,-1.0]},{"rotation":[0.0,0.0,0.0,-1.0]},{"name":"SubPart 2","rotation":[0.0,0.0,0.0,-1.0]},{"name":"Walls (3)","children":[62,67,72],"rotation":[0.0,0.0,0.0,-1.0]},{"name":"Basic Wall [2738]","children":[63,66],"rotation":[0.0,0.0,0.0,-1.0]},{"children":[65],"rotation":[0.0,0.0,0.0,-1.0]},{"mesh":16},{"children":[64]},{"rotation":[0.0,0.0,0.0,-1.0]},{"name":"Basic Wall [2739]","children":[68,71],"rotation":[0.0,0.0,0.0,-1.0]},{"children":[70],"rotation":[0.0,0.0,0.0,-1.0]},{"mesh":17},{"children":[69]},{"rotation":[0.0,0.0,0.0,-1.0]},{"name":"Basic Wall [2758]","children":[73,76],"rotation":[0.0,0.0,0.0,-1.0]},{"children":[75],"rotation":[0.0,0.0,0.0,-1.0]},{"mesh":18},{"children":[74]},{"rotation":[0.0,0.0,0.0,-1.0]}],"samplers":[{"wrapS":10497,"wrapT":10497}],"scene":0,"scenes":[{"nodes":[0]}]}